<?xml version="1.0" encoding="UTF-8"?>
<svg width="110px" height="99px" viewBox="0 0 110 99" version="1.1" xmlns="http://www.w3.org/2000/svg" xmlns:xlink="http://www.w3.org/1999/xlink">
    <!-- Generator: Sketch 60.1 (88133) - https://sketch.com -->
    <title>triangles</title>
    <desc>Created with Sketch.</desc>
    <g id="Page-1" stroke="none" stroke-width="1" fill="none" fill-rule="evenodd">
        <g id="triangles" fill="#EDEFF5" fill-rule="nonzero">
            <polygon id="Path" points="0 10.35 6.48 0 12.95 10.35"></polygon>
            <polygon id="Path" points="24.13 10.35 30.6 0 37.08 10.35"></polygon>
            <polygon id="Path" points="48.25 10.35 54.73 0 61.2 10.35"></polygon>
            <polygon id="Path" points="72.38 10.35 78.85 0 85.33 10.35"></polygon>
            <polygon id="Path" points="96.5 10.35 102.98 0 109.45 10.35"></polygon>
            <polygon id="Path" points="0 39.57 6.48 29.23 12.95 39.57"></polygon>
            <polygon id="Path" points="24.13 39.57 30.6 29.23 37.08 39.57"></polygon>
            <polygon id="Path" points="48.25 39.57 54.73 29.23 61.2 39.57"></polygon>
            <polygon id="Path" points="72.38 39.57 78.85 29.23 85.33 39.57"></polygon>
            <polygon id="Path" points="96.5 39.57 102.98 29.23 109.45 39.57"></polygon>
            <polygon id="Path" points="0 68.8 6.48 58.46 12.95 68.8"></polygon>
            <polygon id="Path" points="24.13 68.8 30.6 58.46 37.08 68.8"></polygon>
            <polygon id="Path" points="48.25 68.8 54.73 58.46 61.2 68.8"></polygon>
            <polygon id="Path" points="72.38 68.8 78.85 58.46 85.33 68.8"></polygon>
            <polygon id="Path" points="96.5 68.8 102.98 58.46 109.45 68.8"></polygon>
            <polygon id="Path" points="0 98.03 6.48 87.69 12.95 98.03"></polygon>
            <polygon id="Path" points="24.13 98.03 30.6 87.69 37.08 98.03"></polygon>
            <polygon id="Path" points="48.25 98.03 54.73 87.69 61.2 98.03"></polygon>
            <polygon id="Path" points="72.38 98.03 78.85 87.69 85.33 98.03"></polygon>
            <polygon id="Path" points="96.5 98.03 102.98 87.69 109.45 98.03"></polygon>
        </g>
    </g>
</svg>