<?xml version="1.0" encoding="UTF-8"?>
<svg width="388px" height="122px" viewBox="0 0 388 122" version="1.1" xmlns="http://www.w3.org/2000/svg" xmlns:xlink="http://www.w3.org/1999/xlink">
    <!-- Generator: Sketch 60.1 (88133) - https://sketch.com -->
    <title>shape</title>
    <desc>Created with Sketch.</desc>
    <g id="Page-1" stroke="none" stroke-width="1" fill="none" fill-rule="evenodd">
        <g id="shape" fill="#E5E5EB" fill-rule="nonzero">
            <circle id="Oval" cx="2.1" cy="81" r="1.2"></circle>
            <circle id="Oval" cx="2.1" cy="67.7" r="1.2"></circle>
            <circle id="Oval" cx="2.1" cy="54.5" r="1.2"></circle>
            <circle id="Oval" cx="2.1" cy="41.3" r="1.2"></circle>
            <circle id="Oval" cx="15.4" cy="94.2" r="1.2"></circle>
            <circle id="Oval" cx="15.4" cy="81" r="1.2"></circle>
            <circle id="Oval" cx="15.4" cy="67.7" r="1.2"></circle>
            <circle id="Oval" cx="15.4" cy="54.5" r="1.2"></circle>
            <circle id="Oval" cx="15.4" cy="41.3" r="1.2"></circle>
            <circle id="Oval" cx="15.4" cy="28" r="1.2"></circle>
            <circle id="Oval" cx="28.6" cy="107.5" r="1.2"></circle>
            <circle id="Oval" cx="28.6" cy="94.2" r="1.2"></circle>
            <circle id="Oval" cx="28.6" cy="81" r="1.2"></circle>
            <circle id="Oval" cx="28.6" cy="67.7" r="1.2"></circle>
            <circle id="Oval" cx="28.6" cy="54.5" r="1.2"></circle>
            <circle id="Oval" cx="28.6" cy="41.3" r="1.2"></circle>
            <circle id="Oval" cx="28.6" cy="28" r="1.2"></circle>
            <circle id="Oval" cx="28.6" cy="14.8" r="1.2"></circle>
            <circle id="Oval" cx="41.8" cy="107.5" r="1.2"></circle>
            <circle id="Oval" cx="41.8" cy="94.2" r="1.2"></circle>
            <circle id="Oval" cx="41.8" cy="81" r="1.2"></circle>
            <circle id="Oval" cx="41.8" cy="67.7" r="1.2"></circle>
            <circle id="Oval" cx="41.8" cy="54.5" r="1.2"></circle>
            <circle id="Oval" cx="41.8" cy="41.3" r="1.2"></circle>
            <circle id="Oval" cx="41.8" cy="28" r="1.2"></circle>
            <circle id="Oval" cx="41.8" cy="14.8" r="1.2"></circle>
            <circle id="Oval" cx="55.1" cy="107.5" r="1.2"></circle>
            <circle id="Oval" cx="55.1" cy="94.2" r="1.2"></circle>
            <circle id="Oval" cx="55.1" cy="81" r="1.2"></circle>
            <circle id="Oval" cx="55.1" cy="67.7" r="1.2"></circle>
            <circle id="Oval" cx="55.1" cy="54.5" r="1.2"></circle>
            <circle id="Oval" cx="55.1" cy="41.3" r="1.2"></circle>
            <circle id="Oval" cx="55.1" cy="28" r="1.2"></circle>
            <circle id="Oval" cx="55.1" cy="14.8" r="1.2"></circle>
            <circle id="Oval" cx="68.3" cy="120.7" r="1.2"></circle>
            <circle id="Oval" cx="68.3" cy="107.5" r="1.2"></circle>
            <circle id="Oval" cx="68.3" cy="94.2" r="1.2"></circle>
            <circle id="Oval" cx="68.3" cy="81" r="1.2"></circle>
            <circle id="Oval" cx="68.3" cy="67.7" r="1.2"></circle>
            <circle id="Oval" cx="68.3" cy="54.5" r="1.2"></circle>
            <circle id="Oval" cx="68.3" cy="41.3" r="1.2"></circle>
            <circle id="Oval" cx="68.3" cy="28" r="1.2"></circle>
            <circle id="Oval" cx="68.3" cy="14.8" r="1.2"></circle>
            <circle id="Oval" cx="68.3" cy="1.5" r="1.2"></circle>
            <circle id="Oval" cx="81.6" cy="107.5" r="1.2"></circle>
            <circle id="Oval" cx="81.6" cy="94.2" r="1.2"></circle>
            <circle id="Oval" cx="81.6" cy="81" r="1.2"></circle>
            <circle id="Oval" cx="81.6" cy="67.7" r="1.2"></circle>
            <circle id="Oval" cx="81.6" cy="54.5" r="1.2"></circle>
            <circle id="Oval" cx="81.6" cy="41.3" r="1.2"></circle>
            <circle id="Oval" cx="81.6" cy="28" r="1.2"></circle>
            <circle id="Oval" cx="81.6" cy="14.8" r="1.2"></circle>
            <circle id="Oval" cx="81.6" cy="1.5" r="1.2"></circle>
            <circle id="Oval" cx="94.8" cy="107.5" r="1.2"></circle>
            <circle id="Oval" cx="94.8" cy="94.2" r="1.2"></circle>
            <circle id="Oval" cx="94.8" cy="81" r="1.2"></circle>
            <circle id="Oval" cx="94.8" cy="67.7" r="1.2"></circle>
            <circle id="Oval" cx="94.8" cy="54.5" r="1.2"></circle>
            <circle id="Oval" cx="94.8" cy="41.3" r="1.2"></circle>
            <circle id="Oval" cx="94.8" cy="28" r="1.2"></circle>
            <circle id="Oval" cx="94.8" cy="14.8" r="1.2"></circle>
            <circle id="Oval" cx="94.8" cy="1.5" r="1.2"></circle>
            <circle id="Oval" cx="108" cy="107.5" r="1.2"></circle>
            <circle id="Oval" cx="108" cy="94.2" r="1.2"></circle>
            <circle id="Oval" cx="108" cy="81" r="1.2"></circle>
            <circle id="Oval" cx="108" cy="67.7" r="1.2"></circle>
            <circle id="Oval" cx="108" cy="54.5" r="1.2"></circle>
            <circle id="Oval" cx="108" cy="41.3" r="1.2"></circle>
            <circle id="Oval" cx="108" cy="28" r="1.2"></circle>
            <circle id="Oval" cx="108" cy="14.8" r="1.2"></circle>
            <circle id="Oval" cx="108" cy="1.5" r="1.2"></circle>
            <circle id="Oval" cx="121.3" cy="94.2" r="1.2"></circle>
            <circle id="Oval" cx="121.3" cy="81" r="1.2"></circle>
            <circle id="Oval" cx="121.3" cy="67.7" r="1.2"></circle>
            <circle id="Oval" cx="121.3" cy="54.5" r="1.2"></circle>
            <circle id="Oval" cx="121.3" cy="41.3" r="1.2"></circle>
            <circle id="Oval" cx="121.3" cy="28" r="1.2"></circle>
            <circle id="Oval" cx="121.3" cy="14.8" r="1.2"></circle>
            <circle id="Oval" cx="121.3" cy="1.5" r="1.2"></circle>
            <circle id="Oval" cx="134.5" cy="94.2" r="1.2"></circle>
            <circle id="Oval" cx="134.5" cy="81" r="1.2"></circle>
            <circle id="Oval" cx="134.5" cy="67.7" r="1.2"></circle>
            <circle id="Oval" cx="134.5" cy="54.5" r="1.2"></circle>
            <circle id="Oval" cx="134.5" cy="41.3" r="1.2"></circle>
            <circle id="Oval" cx="134.5" cy="28" r="1.2"></circle>
            <circle id="Oval" cx="134.5" cy="14.8" r="1.2"></circle>
            <circle id="Oval" cx="147.8" cy="94.2" r="1.2"></circle>
            <circle id="Oval" cx="147.8" cy="81" r="1.2"></circle>
            <circle id="Oval" cx="147.8" cy="67.7" r="1.2"></circle>
            <circle id="Oval" cx="147.8" cy="54.5" r="1.2"></circle>
            <circle id="Oval" cx="147.8" cy="41.3" r="1.2"></circle>
            <circle id="Oval" cx="147.8" cy="28" r="1.2"></circle>
            <circle id="Oval" cx="147.8" cy="14.8" r="1.2"></circle>
            <circle id="Oval" cx="161" cy="81" r="1.2"></circle>
            <circle id="Oval" cx="161" cy="67.7" r="1.2"></circle>
            <circle id="Oval" cx="161" cy="54.5" r="1.2"></circle>
            <circle id="Oval" cx="161" cy="41.3" r="1.2"></circle>
            <circle id="Oval" cx="161" cy="28" r="1.2"></circle>
            <circle id="Oval" cx="161" cy="14.8" r="1.2"></circle>
            <circle id="Oval" cx="174.2" cy="81" r="1.2"></circle>
            <circle id="Oval" cx="174.2" cy="67.7" r="1.2"></circle>
            <circle id="Oval" cx="174.2" cy="54.5" r="1.2"></circle>
            <circle id="Oval" cx="174.2" cy="41.3" r="1.2"></circle>
            <circle id="Oval" cx="174.2" cy="28" r="1.2"></circle>
            <circle id="Oval" cx="174.2" cy="14.8" r="1.2"></circle>
            <circle id="Oval" cx="187.5" cy="81" r="1.2"></circle>
            <circle id="Oval" cx="187.5" cy="67.7" r="1.2"></circle>
            <circle id="Oval" cx="187.5" cy="54.5" r="1.2"></circle>
            <circle id="Oval" cx="187.5" cy="41.3" r="1.2"></circle>
            <circle id="Oval" cx="187.5" cy="28" r="1.2"></circle>
            <circle id="Oval" cx="200.7" cy="81" r="1.2"></circle>
            <circle id="Oval" cx="200.7" cy="67.7" r="1.2"></circle>
            <circle id="Oval" cx="200.7" cy="54.5" r="1.2"></circle>
            <circle id="Oval" cx="200.7" cy="41.3" r="1.2"></circle>
            <circle id="Oval" cx="200.7" cy="28" r="1.2"></circle>
            <circle id="Oval" cx="214" cy="67.7" r="1.2"></circle>
            <circle id="Oval" cx="214" cy="54.5" r="1.2"></circle>
            <circle id="Oval" cx="214" cy="41.3" r="1.2"></circle>
            <circle id="Oval" cx="214" cy="28" r="1.2"></circle>
            <circle id="Oval" cx="227.2" cy="67.7" r="1.2"></circle>
            <circle id="Oval" cx="227.2" cy="54.5" r="1.2"></circle>
            <circle id="Oval" cx="227.2" cy="41.3" r="1.2"></circle>
            <circle id="Oval" cx="227.2" cy="28" r="1.2"></circle>
            <circle id="Oval" cx="240.4" cy="67.7" r="1.2"></circle>
            <circle id="Oval" cx="240.4" cy="54.5" r="1.2"></circle>
            <circle id="Oval" cx="240.4" cy="41.3" r="1.2"></circle>
            <circle id="Oval" cx="240.4" cy="28" r="1.2"></circle>
            <circle id="Oval" cx="253.7" cy="81" r="1.2"></circle>
            <circle id="Oval" cx="253.7" cy="67.7" r="1.2"></circle>
            <circle id="Oval" cx="253.7" cy="54.5" r="1.2"></circle>
            <circle id="Oval" cx="253.7" cy="41.3" r="1.2"></circle>
            <circle id="Oval" cx="253.7" cy="28" r="1.2"></circle>
            <circle id="Oval" cx="266.9" cy="81" r="1.2"></circle>
            <circle id="Oval" cx="266.9" cy="67.7" r="1.2"></circle>
            <circle id="Oval" cx="266.9" cy="54.5" r="1.2"></circle>
            <circle id="Oval" cx="266.9" cy="41.3" r="1.2"></circle>
            <circle id="Oval" cx="266.9" cy="28" r="1.2"></circle>
            <circle id="Oval" cx="280.1" cy="81" r="1.2"></circle>
            <circle id="Oval" cx="280.1" cy="67.7" r="1.2"></circle>
            <circle id="Oval" cx="280.1" cy="54.5" r="1.2"></circle>
            <circle id="Oval" cx="280.1" cy="41.3" r="1.2"></circle>
            <circle id="Oval" cx="280.1" cy="28" r="1.2"></circle>
            <circle id="Oval" cx="293.4" cy="81" r="1.2"></circle>
            <circle id="Oval" cx="293.4" cy="67.7" r="1.2"></circle>
            <circle id="Oval" cx="293.4" cy="54.5" r="1.2"></circle>
            <circle id="Oval" cx="293.4" cy="41.3" r="1.2"></circle>
            <circle id="Oval" cx="293.4" cy="28" r="1.2"></circle>
            <circle id="Oval" cx="306.6" cy="81" r="1.2"></circle>
            <circle id="Oval" cx="306.6" cy="67.7" r="1.2"></circle>
            <circle id="Oval" cx="306.6" cy="54.5" r="1.2"></circle>
            <circle id="Oval" cx="306.6" cy="41.3" r="1.2"></circle>
            <circle id="Oval" cx="306.6" cy="28" r="1.2"></circle>
            <circle id="Oval" cx="319.9" cy="81" r="1.2"></circle>
            <circle id="Oval" cx="319.9" cy="67.7" r="1.2"></circle>
            <circle id="Oval" cx="319.9" cy="54.5" r="1.2"></circle>
            <circle id="Oval" cx="319.9" cy="41.3" r="1.2"></circle>
            <circle id="Oval" cx="319.9" cy="28" r="1.2"></circle>
            <circle id="Oval" cx="333.1" cy="81" r="1.2"></circle>
            <circle id="Oval" cx="333.1" cy="67.7" r="1.2"></circle>
            <circle id="Oval" cx="333.1" cy="54.5" r="1.2"></circle>
            <circle id="Oval" cx="333.1" cy="41.3" r="1.2"></circle>
            <circle id="Oval" cx="333.1" cy="28" r="1.2"></circle>
            <circle id="Oval" cx="346.3" cy="81" r="1.2"></circle>
            <circle id="Oval" cx="346.3" cy="67.7" r="1.2"></circle>
            <circle id="Oval" cx="346.3" cy="54.5" r="1.2"></circle>
            <circle id="Oval" cx="346.3" cy="41.3" r="1.2"></circle>
            <circle id="Oval" cx="359.6" cy="67.7" r="1.2"></circle>
            <circle id="Oval" cx="359.6" cy="54.5" r="1.2"></circle>
            <circle id="Oval" cx="359.6" cy="41.3" r="1.2"></circle>
            <circle id="Oval" cx="372.8" cy="67.7" r="1.2"></circle>
            <circle id="Oval" cx="372.8" cy="54.5" r="1.2"></circle>
            <circle id="Oval" cx="386.1" cy="54.5" r="1.2"></circle>
        </g>
    </g>
</svg>