<?xml version="1.0" encoding="UTF-8"?>
<svg width="144px" height="35px" viewBox="0 0 144 35" version="1.1" xmlns="http://www.w3.org/2000/svg" xmlns:xlink="http://www.w3.org/1999/xlink">
    <!-- Generator: Sketch 60.1 (88133) - https://sketch.com -->
    <title>tnw-logo</title>
    <desc>Created with Sketch.</desc>
    <g id="Page-1" stroke="none" stroke-width="1" fill="none" fill-rule="evenodd">
        <g id="tnw-logo" fill="#061845" fill-rule="nonzero">
            <path d="M111,34.86 L111,26.86 C110.350344,27.3788743 109.735672,27.9400961 109.16,28.54 C105.16,33.44 100.11,35.38 93.81,34.9 C89.49,34.57 85.11,34.83 80.81,34.83 L78.44,34.83 L78.44,0.13 L91.38,0.13 C91.46,7.26 91.38,14.39 91.43,21.72 C92.9927691,21.8116396 94.5600867,21.7915886 96.12,21.66 C97.0968023,21.4423875 97.9998965,20.9736058 98.74,20.3 C100.06,19.17 101.19,17.82 102.47,16.65 C103.808288,15.4884645 104.544484,13.7804892 104.47,12.01 C104.47,8.82 104.47,5.63 104.47,2.44 L104.47,0.15 L117.47,0.15 C117.47,0.95 117.57,1.65 117.58,2.36 C117.58,5.62 117.58,8.88 117.58,12.14 C117.58,15.4 117.4,18.51 115.58,21.74 C118.003729,21.8802398 120.434787,21.8267364 122.85,21.58 C123.669818,21.3253106 124.410252,20.8638308 125,20.24 C126.19,19.18 127.22,17.94 128.41,16.89 C129.926724,15.6045347 130.740095,13.6732411 130.6,11.69 C130.52,8.58 130.6,5.46 130.6,2.34 C130.6,1.63 130.66,0.93 130.7,0.12 L143.52,0.12 C143.58,0.71 143.69,1.26 143.7,1.81 C143.7,6.01666667 143.7,10.2233333 143.7,14.43 C143.735677,18.0236792 142.310037,21.4776968 139.75,24 C137.456667,26.32 135.15,28.6266667 132.83,30.92 C130.312873,33.4953506 126.840245,34.9111979 123.24,34.83 C119.26,34.83 115.28,34.86 111,34.86 Z" id="Path"></path>
            <path d="M34.88,0.12 C35.62,0.12 36.26,0.01 36.88,0.01 C42.32,0.01 47.76,0.01 53.2,0.01 C57.0227377,-0.0925231763 60.7115294,1.42147893 63.36,4.18 C65.54,6.4 67.76,8.59 69.98,10.79 C72.3463464,12.9986957 73.7535097,16.046353 73.9,19.28 C74.06,24.34 73.9,29.41 73.9,34.44 C72.33,34.95 64.33,35.09 60.97,34.66 C60.97,34.08 60.83,33.46 60.83,32.83 C60.83,29.57 60.83,26.31 60.83,23.05 C60.9504242,21.2137368 60.2115329,19.4256198 58.83,18.21 C57.744315,17.247636 56.7158896,16.2225497 55.75,15.14 C54.5115675,13.6945511 52.6436573,12.947387 50.75,13.14 C49.89,13.2 49.03,13.14 47.94,13.14 L47.94,34.68 L34.88,34.68 L34.88,0.12 Z" id="Path"></path>
            <polygon id="Path" points="30.32 0.09 30.32 13.09 21.81 13.09 21.81 34.69 8.58 34.69 8.58 13.12 0 13.12 0 0.09"></polygon>
        </g>
    </g>
</svg>