<?xml version="1.0" encoding="UTF-8"?>
<svg width="128px" height="39px" viewBox="0 0 128 39" version="1.1" xmlns="http://www.w3.org/2000/svg" xmlns:xlink="http://www.w3.org/1999/xlink">
    <!-- Generator: Sketch 60.1 (88133) - https://sketch.com -->
    <title>join-amazon</title>
    <desc>Created with Sketch.</desc>
    <g id="Page-1" stroke="none" stroke-width="1" fill="none" fill-rule="evenodd">
        <g id="join-amazon" transform="translate(0.000000, -1.000000)" fill="#D3D3D3">
            <path d="M79,31 C71.6,36.46 60.87,39.37 51.63,39.37 C39.2956649,39.4306307 27.3823261,34.8878011 18.22,26.63 C17.52,26 18.14,25.15 18.97,25.63 C29.1549083,31.4561848 40.6864272,34.5174669 52.42,34.51 C61.1848808,34.4646108 69.8543531,32.6872161 77.93,29.28 C79.18,28.75 80.23,30.11 79,31 Z" id="Path"></path>
            <path d="M82.09,27.5 C81.09,26.29 75.83,26.92 73.44,27.21 C72.72,27.3 72.61,26.66 73.26,26.21 C77.5,23.21 84.44,24.09 85.26,25.09 C86.08,26.09 85.05,33.09 81.08,36.37 C80.47,36.88 79.89,36.61 80.16,35.94 C81,33.7 83,28.71 82.09,27.5 Z" id="Path"></path>
            <path d="M73.61,5.19 L73.61,2.3 C73.6071984,2.10379901 73.684595,1.91495385 73.8242848,1.77715172 C73.9639746,1.63934959 74.1538553,1.56452942 74.35,1.57 L87.35,1.57 C87.5478476,1.56172757 87.7403687,1.63530492 87.8822695,1.77342172 C88.0241704,1.91153852 88.1029232,2.10200113 88.1,2.3 L88.1,4.78 C88.1,5.19 87.74,5.78 87.1,6.6 L80.39,16.18 C82.9514362,16.0365589 85.5042125,16.585803 87.78,17.77 C88.1943635,17.992416 88.4577104,18.4198777 88.47,18.89 L88.47,22 C88.47,22.42 88,22.91 87.47,22.66 C83.1755598,20.4445553 78.0744402,20.4445553 73.78,22.66 C73.33,22.9 72.85,22.42 72.85,21.99 L72.85,19.06 C72.8039922,18.3588256 72.9750825,17.6604977 73.34,17.06 L81.13,5.92 L74.36,5.92 C74.1629504,5.92540066 73.9720922,5.85088101 73.830834,5.71338973 C73.6895758,5.57589845 73.609926,5.38712361 73.61,5.19 L73.61,5.19 Z" id="Path"></path>
            <path d="M26.35,23.25 L22.41,23.25 C22.0443506,23.2275947 21.74839,22.9443181 21.71,22.58 L21.71,2.35 C21.7209067,1.93970153 22.059595,1.61438248 22.47,1.62 L26.14,1.62 C26.5168092,1.63345857 26.825049,1.92457396 26.86,2.3 L26.86,4.94 L26.93,4.94 C27.5978016,2.65078103 29.7370958,1.10917015 32.12,1.2 C34.58,1.2 36.12,2.39 37.23,4.94 C37.982849,2.99084788 39.7212453,1.59364026 41.7867017,1.27762542 C43.8521581,0.961610593 45.9287938,1.77511832 47.23,3.41 C48.48,5.11 48.23,7.58 48.23,9.75 L48.23,22.52 C48.2190933,22.9302985 47.880405,23.2556175 47.47,23.25 L43.53,23.25 C43.140841,23.228962 42.8346983,22.9096989 42.83,22.52 L42.83,11.8 C42.884526,10.5323345 42.8477644,9.26238862 42.72,8 C42.5550501,6.88170392 41.5197502,6.105229 40.4,6.26 C39.3373698,6.27537072 38.3892903,6.93112574 38,7.92 C37.6730705,9.1857716 37.5481974,10.4952514 37.63,11.8 L37.63,22.52 C37.6190933,22.9302985 37.280405,23.2556175 36.87,23.25 L33,23.25 C32.6069125,23.2340827 32.2949942,22.9133779 32.29,22.52 L32.29,11.8 C32.29,9.54 32.65,6.22 29.86,6.22 C27.07,6.22 27.14,9.45 27.14,11.8 L27.14,22.52 C27.1348888,22.7225473 27.0480458,22.9144097 26.8992383,23.0519154 C26.7504307,23.1894211 26.5523199,23.2608704 26.35,23.25 Z" id="Path"></path>
            <path d="M99.2,1.2 C105.05,1.2 108.2,6.2 108.2,12.6 C108.2,18.78 104.7,23.67 99.2,23.67 C93.46,23.67 90.34,18.67 90.34,12.39 C90.34,6.11 93.5,1.2 99.2,1.2 Z M99.2,5.33 C96.29,5.33 96.11,9.28 96.11,11.75 C96.11,14.22 96.11,19.5 99.11,19.5 C102.11,19.5 102.31,15.24 102.31,12.65 C102.376147,10.84081 102.177377,9.03167056 101.72,7.28 C101.473812,6.11570747 100.429509,5.29458155 99.24,5.33 L99.2,5.33 Z" id="Shape"></path>
            <path d="M115.8,23.2501927 L111.88,23.2501927 C111.486913,23.2340827 111.174994,22.9133779 111.17,22.52 L111.17,2.28 C111.216161,1.89742484 111.544731,1.61208723 111.93,1.62 L115.59,1.62 C115.923122,1.63583575 116.207002,1.86699485 116.29,2.19 L116.29,5.28 L116.36,5.28 C117.45,2.51 119,1.2 121.72,1.2 C123.569731,1.10852131 125.326141,2.01727223 126.32,3.58 C127.32,5.2 127.32,7.92 127.32,9.88 L127.32,22.61 C127.269217,22.9830662 126.94641,23.2585284 126.57,23.2501927 L122.62,23.2501927 C122.263537,23.2271699 121.969575,22.9621905 121.91,22.61 L121.91,11.61 C121.91,9.39 122.17,6.16 119.45,6.16 C118.438544,6.19872943 117.544879,6.82978213 117.17,7.77 C116.679639,8.98794813 116.464509,10.2992166 116.54,11.61 L116.54,22.52 C116.524315,22.9203499 116.200526,23.2397635 115.8,23.2501927 L115.8,23.2501927 Z" id="Path"></path>
            <path d="M63.29,13.59 C63.4350434,15.0249711 63.1788644,16.4720365 62.55,17.77 C62.0339815,18.8193937 60.9881152,19.5051449 59.82,19.56 C58.31,19.56 57.42,18.41 57.42,16.7 C57.42,13.34 60.42,12.7 63.29,12.7 L63.29,13.59 Z M67.29,23.2 C67.0290789,23.4209517 66.6584473,23.4568193 66.36,23.29 C65.4515343,22.5595753 64.6854139,21.6680281 64.1,20.66 C61.93,22.87 60.4,23.53 57.6,23.53 C54.28,23.53 51.7,21.48 51.7,17.38 C51.6034791,14.5628827 53.2830859,11.9874857 55.9,10.94 C58,10 61,9.83 63.29,9.57 L63.29,9.06 C63.4140378,8.0834622 63.2470609,7.09203696 62.81,6.21 C62.2770689,5.53494913 61.4487127,5.16181567 60.59,5.21 C59.0918139,5.09727222 57.7412734,6.11017755 57.43,7.58 C57.3827569,7.94533413 57.1029941,8.23726051 56.74,8.3 L52.92,7.89 C52.715776,7.86581192 52.5325201,7.75304271 52.4188901,7.58163468 C52.30526,7.41022666 52.2727529,7.19752283 52.33,7 C53.21,2.37 57.4,1 61.15,1 C63.3030698,0.930443358 65.4088525,1.64065675 67.08,3 C69,4.75 68.82,7.14 68.82,9.75 L68.82,15.89 C68.8362103,17.2496058 69.3647316,18.5530534 70.3,19.54 C70.4398451,19.678916 70.5184878,19.8678851 70.5184878,20.065 C70.5184878,20.2621149 70.4398451,20.451084 70.3,20.59 C69.5,21.26 68.07,22.5 67.3,23.2 L67.29,23.2 Z" id="Shape"></path>
            <path d="M11.61,13.59 C11.7586737,15.024058 11.5059395,16.4712214 10.88,17.77 C10.3639815,18.8193937 9.31811519,19.5051449 8.15,19.56 C6.64,19.56 5.75,18.41 5.75,16.7 C5.75,13.34 8.75,12.7 11.61,12.7 L11.61,13.59 Z M15.61,23.2 C15.3490789,23.4209517 14.9784473,23.4568193 14.68,23.29 C13.7715343,22.5595753 13.0054139,21.6680281 12.42,20.66 C10.25,22.87 8.72,23.53 5.92,23.53 C2.6,23.53 0.02,21.48 0.02,17.38 C-0.0796896635,14.5678797 1.5909556,11.9939669 4.2,10.94 C6.34,10 9.33,9.83 11.61,9.57 L11.61,9.06 C11.7371277,8.08444947 11.5736377,7.09307344 11.14,6.21 C10.6070689,5.53494913 9.77871267,5.16181567 8.92,5.21 C7.43106795,5.09476177 6.08409182,6.09220612 5.76,7.55 C5.71275686,7.91533413 5.43299408,8.20726051 5.07,8.27 L1.25,7.86 C1.05261008,7.83438683 0.875458135,7.72595252 0.762855593,7.56182 C0.650253051,7.39768748 0.612849218,7.19337947 0.66,7 C1.54,2.4 5.72,1 9.48,1 C11.6330698,0.930443358 13.7388525,1.64065675 15.41,3 C17.33,4.79 17.15,7.18 17.15,9.79 L17.15,15.93 C17.1662103,17.2896058 17.6947316,18.5930534 18.63,19.58 C18.9158572,19.8716326 18.9158572,20.3383674 18.63,20.63 C17.83,21.3 16.39,22.54 15.63,23.24 L15.61,23.2 Z" id="Shape"></path>
        </g>
    </g>
</svg>