<?xml version="1.0" encoding="UTF-8"?>
<svg width="138px" height="36px" viewBox="0 0 138 36" version="1.1" xmlns="http://www.w3.org/2000/svg" xmlns:xlink="http://www.w3.org/1999/xlink">
    <!-- Generator: Sketch 60.1 (88133) - https://sketch.com -->
    <title>join-forbes</title>
    <desc>Created with Sketch.</desc>
    <g id="Page-1" stroke="none" stroke-width="1" fill="none" fill-rule="evenodd">
        <g id="join-forbes" fill="#061845" fill-rule="nonzero">
            <path d="M34.19,35.9 C31.8973009,35.6158836 29.7577285,34.5987098 28.09,33 C26.7510863,31.678959 25.7732808,30.0366589 25.25,28.23 C24.2498132,24.9137739 24.2498132,21.3762261 25.25,18.06 C26.2134098,15.1012341 28.2947098,12.6359702 31.05,11.19 C34.9629623,9.34644379 39.5150567,9.45015302 43.34,11.47 C46.41,13.27 48.27,16.47 48.79,20.88 C48.929723,22.6614383 48.8659784,24.4529968 48.6,26.22 C47.6,31 44.6,34.34 40.26,35.6 C39.7308764,35.7515435 39.1932766,35.8717522 38.65,35.96 C37.1659626,36.0850425 35.6740374,36.0850425 34.19,35.96 L34.19,35.9 Z M37.78,34 C38.6508754,33.6238618 39.3597251,32.9504546 39.78,32.1 C40.78,30.28 41.16,27.59 41.17,23.32 C41.17,17.97 40.34,14.56 38.57,12.78 C38.0349463,12.1076734 37.2080789,11.7352106 36.35,11.78 C34.24,11.78 32.9,13.98 32.35,18.32 C32.1098769,21.1449064 32.1098769,23.9850936 32.35,26.81 C33.1,32.21 35.03,34.81 37.74,33.98 L37.78,34 Z M76.68,35.92 C75.68,35.82 72.68,35.32 71.68,35.08 L70.95,34.92 L71,31 C71.14,21.68 71.15,16.59 71.07,11.65 C70.99,6.71 70.95,6.29 70.77,5.57 C70.647451,4.86646408 70.2958999,4.22312556 69.77,3.74 C69.459143,3.56492453 69.1211192,3.44323594 68.77,3.38 C67.54,3.1 67.61,3.14 67.58,2.58 C67.58,2.26 67.58,2.05 67.67,1.98 C67.76,1.91 77.91,0 78.23,0 C78.32,0 78.34,1.29 78.29,5.74 C78.29,8.9 78.29,11.48 78.29,11.48 C78.5692727,11.3740109 78.8429611,11.253855 79.11,11.12 C80.4160172,10.5249573 81.8348161,10.2180056 83.27,10.22 C84.0178824,10.158011 84.7706164,10.1916152 85.51,10.32 C89.32,11.11 92.14,14.23 93.13,18.75 C93.4043839,20.593532 93.4647846,22.462599 93.31,24.32 C93.1261793,25.6863195 92.7907791,27.0279201 92.31,28.32 C90.6854953,32.4320097 86.9314837,35.317642 82.54,35.83 C80.5900103,35.9916313 78.6299897,35.9916313 76.68,35.83 L76.68,35.92 Z M80.68,33.92 C81.3929591,33.7832775 82.0481352,33.4347796 82.56,32.92 C84.06,31.57 85.19,28.78 85.63,25.33 C85.8260027,23.4049763 85.8260027,21.4650237 85.63,19.54 C85.09,16.36 83.92,14.27 82.22,13.43 C81.7257259,13.1283954 81.1457342,12.9983367 80.57,13.06 C80.0469124,13.0490155 79.5249474,13.1129983 79.02,13.25 L78.36,13.45 L78.36,17.06 C78.29,21.69 78.45,33.29 78.57,33.62 C78.69,33.95 78.74,33.88 79.14,33.91 C79.6760667,34.0021728 80.2239333,34.0021728 80.76,33.91 L80.68,33.92 Z M105.16,35.84 C100.295487,35.0037179 96.4722076,31.2163938 95.59,26.36 C95.420426,25.4296472 95.3367406,24.4856749 95.34,23.54 C95.2300212,21.7111888 95.4710218,19.8782262 96.05,18.14 C96.9526188,15.0353313 99.1089949,12.4476801 102,11 C105.146633,9.4950049 108.787502,9.41126491 112,10.77 C115.06,12.3 116.86,15.36 117.32,19.77 C117.379017,20.2945299 117.405734,20.8221916 117.4,21.35 L117.4,21.84 L110.07,21.84 L102.75,21.84 L102.75,22.7 C102.781317,24.5469063 103.221897,26.3638744 104.04,28.02 C104.383811,28.6924608 104.844291,29.298534 105.4,29.81 C106.850939,31.3527234 108.917051,32.1637551 111.03,32.02 C112.605069,32.0820348 114.160377,31.6521406 115.48,30.79 C115.74315,30.5988025 116.032894,30.4471923 116.34,30.34 C116.54,30.34 117.02,30.95 117.02,31.22 C117.02,31.66 115.6,33.06 114.22,34 C112.842688,34.8556256 111.315778,35.4426378 109.72,35.73 C108.197804,35.9631755 106.652283,36.0034935 105.12,35.85 L105.16,35.84 Z M108.26,19.72 L109.99,19.66 L109.92,18.43 C109.71,14.12 108.65,11.77 106.92,11.77 C105.06,11.77 103.57,14.16 102.92,18.15 C102.847157,18.5767548 102.800404,19.0075542 102.78,19.44 L102.78,19.84 L104.64,19.84 L108.21,19.75 L108.26,19.72 Z M124.9,36 C123.030114,35.7858025 121.187133,35.3803468 119.4,34.79 L118.95,34.6 L118.88,32.34 C118.88,31.09 118.81,29.43 118.8,28.64 L118.8,27.21 L119,27 C119.217266,26.9142171 119.446807,26.863583 119.68,26.85 L120.08,26.85 L120.42,27.69 C121.75,30.97 123.32,32.74 125.36,33.28 C126.285392,33.4855337 127.244608,33.4855337 128.17,33.28 C129.699874,32.8369538 130.733707,31.411829 130.68,29.82 C130.68,27.82 129.6,26.89 125.5,25.28 C122.95,24.28 122.06,23.78 121.01,22.7 C119.872192,21.5359129 119.227414,19.9776987 119.21,18.35 C119.048946,16.2205659 119.827114,14.1271839 121.34,12.62 C123.036669,10.940453 125.304036,9.96209312 127.69,9.88 C130.457966,9.6915237 133.235178,10.0727097 135.85,11 L136.2,11.15 L136.27,13.15 C136.27,14.26 136.34,15.75 136.35,16.45 L136.35,17.74 L135.87,17.92 C135.12,18.2 135.07,18.16 134.65,17.05 C133.46,13.92 132.09,12.44 129.96,11.99 C128.990451,11.7188083 127.949895,11.9152073 127.1459,12.5211454 C126.341904,13.1270835 125.866424,14.0732585 125.86,15.08 C125.722643,15.9465491 126.013302,16.8259774 126.64,17.44 C127.44,18.31 128.75,19.07 131.37,20.17 C134.58,21.51 136.11,22.65 136.95,24.31 C137.498906,25.4254011 137.717495,26.6744788 137.58,27.91 C137.612178,28.7059257 137.489927,29.5005519 137.22,30.25 C136.3,32.98 134.22,34.78 130.98,35.62 C129.866529,35.920577 128.709904,36.0287992 127.56,35.94 C126.31,35.94 125.11,35.94 124.89,35.94 L124.9,36 Z M0.13,35.35 C0.05,35.35 0.01,35.07 0.01,34.62 C0.01,33.8 0.01,33.83 1.54,33.54 C2.40715898,33.5018318 3.21124183,33.0759249 3.73,32.38 C4.77,31 5,28.38 5,17.56 C5,7.4 4.8,5.26 3.73,3.69 C3.0832044,2.90374675 2.11810466,2.44871873 1.1,2.45 L0.1,2.33 L0.1,1.52 L0,0.7 L0.33,0.7 C0.5,0.7 6.79,0.65 14.33,0.7 L28,0.65 L28,1 C28,1.22 28.1,3.45 28.13,6 L28.2,10.57 L27.49,10.78 C26.43,11.1 26.44,11.11 25.96,9.85 C24.8,6.75 23.46,5 21.62,4.06 C20.36,3.44 19.77,3.37 16.19,3.37 L13.08,3.37 L13,3.88 C12.9,4.88 12.74,11.12 12.74,14.07 L12.74,17 L13.65,17 C14.16,17 15.15,17 15.86,16.92 C16.4868129,16.9454429 17.1115559,16.8327843 17.69,16.59 C18.79,16.09 19.53,14.97 19.99,13.15 L20.23,12.21 L21.03,12.21 L21.84,12.21 L21.84,24.05 L21.03,24.05 L20.23,24.05 L20,23.05 C19.57,21.29 18.74,20.05 17.71,19.57 C16.4314876,19.2561928 15.1155697,19.121572 13.8,19.17 L12.74,19.17 L12.74,21.4 C12.74,23.84 12.87,27.13 13.04,28.91 C13.28,31.4 13.92,32.78 15.04,33.28 C15.5424747,33.4378811 16.0577597,33.5516453 16.58,33.62 C17.0217728,33.6785916 17.4593362,33.7654362 17.89,33.88 C18.13,34.01 18.14,35.3 17.89,35.39 C17.64,35.48 0.24,35.45 0.06,35.39 L0.13,35.35 Z M48.9,35.35 C48.81,35.35 48.78,35.07 48.8,34.59 L48.8,33.9 L49.14,33.83 L50.05,33.65 C50.9596518,33.5198494 51.6887051,32.8308539 51.87,31.93 C52.12,31.11 52.24,28.45 52.24,23.12 C52.24,16.6 52.11,15.06 51.45,14.19 C51.1,13.72 50.84,13.58 49.97,13.42 L48.97,13.22 C48.77,13.22 48.75,13.12 48.75,12.63 C48.75,12.14 48.75,12.07 48.97,12 C49.19,11.93 59.1,9.89 59.41,9.89 L59.66,9.89 L59.66,11.35 C59.66,12.16 59.59,13.35 59.56,13.95 L59.56,15.09 L59.91,14.45 C60.7825967,12.6619172 62.2297969,11.2182382 64.02,10.35 C64.859036,9.94137369 65.787977,9.75214497 66.72,9.8 C68.08,9.8 69.45,10.24 69.45,10.69 C69.45,10.98 67.04,17.33 66.91,17.38 C66.5587651,17.2967098 66.221784,17.1619174 65.91,16.98 C64.979376,16.5069059 63.9537713,16.2505048 62.91,16.23 C61.798015,16.193132 60.7082463,16.546953 59.83,17.23 C59.6,17.48 59.6,17.49 59.55,21.12 C59.5,24.75 59.61,29.12 59.81,30.88 C59.99,32.39 60.39,33.13 61.21,33.47 C62.0609196,33.6650422 62.9278325,33.7821926 63.8,33.82 C63.8625328,34.0716186 63.8794671,34.3324074 63.85,34.59 L63.85,35.36 L56.53,35.36 C52.53,35.36 49.15,35.36 49.08,35.3 L48.9,35.35 Z" id="Shape"></path>
        </g>
    </g>
</svg>