<?xml version="1.0" encoding="UTF-8"?>
<svg width="310px" height="160px" viewBox="0 0 310 160" version="1.1" xmlns="http://www.w3.org/2000/svg" xmlns:xlink="http://www.w3.org/1999/xlink">
    <!-- Generator: Sketch 60.1 (88133) - https://sketch.com -->
    <title>plus-signs-purple</title>
    <desc>Created with Sketch.</desc>
    <g id="Page-1" stroke="none" stroke-width="1" fill="none" fill-rule="evenodd" stroke-linecap="round">
        <g id="plus-signs-purple" transform="translate(1.000000, 1.000000)" stroke="#D582FF" stroke-width="2">
            <line x1="303.81" y1="150" x2="303.81" y2="157.62" id="Path"></line>
            <line x1="307.62" y1="153.81" x2="300" y2="153.81" id="Path"></line>
            <line x1="273.81" y1="150" x2="273.81" y2="157.62" id="Path"></line>
            <line x1="277.62" y1="153.81" x2="270" y2="153.81" id="Path"></line>
            <line x1="243.81" y1="150" x2="243.81" y2="157.62" id="Path"></line>
            <line x1="247.62" y1="153.81" x2="240" y2="153.81" id="Path"></line>
            <line x1="213.81" y1="150" x2="213.81" y2="157.62" id="Path"></line>
            <line x1="217.62" y1="153.81" x2="210" y2="153.81" id="Path"></line>
            <line x1="183.81" y1="150" x2="183.81" y2="157.62" id="Path"></line>
            <line x1="187.62" y1="153.81" x2="180" y2="153.81" id="Path"></line>
            <line x1="153.81" y1="150" x2="153.81" y2="157.62" id="Path"></line>
            <line x1="157.62" y1="153.81" x2="150" y2="153.81" id="Path"></line>
            <line x1="123.81" y1="150" x2="123.81" y2="157.62" id="Path"></line>
            <line x1="127.62" y1="153.81" x2="120" y2="153.81" id="Path"></line>
            <line x1="93.81" y1="150" x2="93.81" y2="157.62" id="Path"></line>
            <line x1="97.62" y1="153.81" x2="90" y2="153.81" id="Path"></line>
            <line x1="63.81" y1="150" x2="63.81" y2="157.62" id="Path"></line>
            <line x1="67.62" y1="153.81" x2="60" y2="153.81" id="Path"></line>
            <line x1="33.81" y1="150" x2="33.81" y2="157.62" id="Path"></line>
            <line x1="37.62" y1="153.81" x2="30" y2="153.81" id="Path"></line>
            <line x1="3.81" y1="150" x2="3.81" y2="157.62" id="Path"></line>
            <line x1="7.62" y1="153.81" x2="0" y2="153.81" id="Path"></line>
            <line x1="303.81" y1="120" x2="303.81" y2="127.62" id="Path"></line>
            <line x1="307.62" y1="123.81" x2="300" y2="123.81" id="Path"></line>
            <line x1="273.81" y1="120" x2="273.81" y2="127.62" id="Path"></line>
            <line x1="277.62" y1="123.81" x2="270" y2="123.81" id="Path"></line>
            <line x1="243.81" y1="120" x2="243.81" y2="127.62" id="Path"></line>
            <line x1="247.62" y1="123.81" x2="240" y2="123.81" id="Path"></line>
            <line x1="213.81" y1="120" x2="213.81" y2="127.62" id="Path"></line>
            <line x1="217.62" y1="123.81" x2="210" y2="123.81" id="Path"></line>
            <line x1="183.81" y1="120" x2="183.81" y2="127.62" id="Path"></line>
            <line x1="187.62" y1="123.81" x2="180" y2="123.81" id="Path"></line>
            <line x1="153.81" y1="120" x2="153.81" y2="127.62" id="Path"></line>
            <line x1="157.62" y1="123.81" x2="150" y2="123.81" id="Path"></line>
            <line x1="123.81" y1="120" x2="123.81" y2="127.62" id="Path"></line>
            <line x1="127.62" y1="123.81" x2="120" y2="123.81" id="Path"></line>
            <line x1="93.81" y1="120" x2="93.81" y2="127.62" id="Path"></line>
            <line x1="97.62" y1="123.81" x2="90" y2="123.81" id="Path"></line>
            <line x1="63.81" y1="120" x2="63.81" y2="127.62" id="Path"></line>
            <line x1="67.62" y1="123.81" x2="60" y2="123.81" id="Path"></line>
            <line x1="33.81" y1="120" x2="33.81" y2="127.62" id="Path"></line>
            <line x1="37.62" y1="123.81" x2="30" y2="123.81" id="Path"></line>
            <line x1="3.81" y1="120" x2="3.81" y2="127.62" id="Path"></line>
            <line x1="7.62" y1="123.81" x2="0" y2="123.81" id="Path"></line>
            <line x1="303.81" y1="90" x2="303.81" y2="97.62" id="Path"></line>
            <line x1="307.62" y1="93.81" x2="300" y2="93.81" id="Path"></line>
            <line x1="273.81" y1="90" x2="273.81" y2="97.62" id="Path"></line>
            <line x1="277.62" y1="93.81" x2="270" y2="93.81" id="Path"></line>
            <line x1="243.81" y1="90" x2="243.81" y2="97.62" id="Path"></line>
            <line x1="247.62" y1="93.81" x2="240" y2="93.81" id="Path"></line>
            <line x1="213.81" y1="90" x2="213.81" y2="97.62" id="Path"></line>
            <line x1="217.62" y1="93.81" x2="210" y2="93.81" id="Path"></line>
            <line x1="183.81" y1="90" x2="183.81" y2="97.62" id="Path"></line>
            <line x1="187.62" y1="93.81" x2="180" y2="93.81" id="Path"></line>
            <line x1="153.81" y1="90" x2="153.81" y2="97.62" id="Path"></line>
            <line x1="157.62" y1="93.81" x2="150" y2="93.81" id="Path"></line>
            <line x1="123.81" y1="90" x2="123.81" y2="97.62" id="Path"></line>
            <line x1="127.62" y1="93.81" x2="120" y2="93.81" id="Path"></line>
            <line x1="93.81" y1="90" x2="93.81" y2="97.62" id="Path"></line>
            <line x1="97.62" y1="93.81" x2="90" y2="93.81" id="Path"></line>
            <line x1="63.81" y1="90" x2="63.81" y2="97.62" id="Path"></line>
            <line x1="67.62" y1="93.81" x2="60" y2="93.81" id="Path"></line>
            <line x1="33.81" y1="90" x2="33.81" y2="97.62" id="Path"></line>
            <line x1="37.62" y1="93.81" x2="30" y2="93.81" id="Path"></line>
            <line x1="3.81" y1="90" x2="3.81" y2="97.62" id="Path"></line>
            <line x1="7.62" y1="93.81" x2="0" y2="93.81" id="Path"></line>
            <line x1="303.81" y1="60" x2="303.81" y2="67.62" id="Path"></line>
            <line x1="307.62" y1="63.81" x2="300" y2="63.81" id="Path"></line>
            <line x1="273.81" y1="60" x2="273.81" y2="67.62" id="Path"></line>
            <line x1="277.62" y1="63.81" x2="270" y2="63.81" id="Path"></line>
            <line x1="243.81" y1="60" x2="243.81" y2="67.62" id="Path"></line>
            <line x1="247.62" y1="63.81" x2="240" y2="63.81" id="Path"></line>
            <line x1="213.81" y1="60" x2="213.81" y2="67.62" id="Path"></line>
            <line x1="217.62" y1="63.81" x2="210" y2="63.81" id="Path"></line>
            <line x1="183.81" y1="60" x2="183.81" y2="67.62" id="Path"></line>
            <line x1="187.62" y1="63.81" x2="180" y2="63.81" id="Path"></line>
            <line x1="153.81" y1="60" x2="153.81" y2="67.62" id="Path"></line>
            <line x1="157.62" y1="63.81" x2="150" y2="63.81" id="Path"></line>
            <line x1="123.81" y1="60" x2="123.81" y2="67.62" id="Path"></line>
            <line x1="127.62" y1="63.81" x2="120" y2="63.81" id="Path"></line>
            <line x1="93.81" y1="60" x2="93.81" y2="67.62" id="Path"></line>
            <line x1="97.62" y1="63.81" x2="90" y2="63.81" id="Path"></line>
            <line x1="63.81" y1="60" x2="63.81" y2="67.62" id="Path"></line>
            <line x1="67.62" y1="63.81" x2="60" y2="63.81" id="Path"></line>
            <line x1="33.81" y1="60" x2="33.81" y2="67.62" id="Path"></line>
            <line x1="37.62" y1="63.81" x2="30" y2="63.81" id="Path"></line>
            <line x1="3.81" y1="60" x2="3.81" y2="67.62" id="Path"></line>
            <line x1="7.62" y1="63.81" x2="0" y2="63.81" id="Path"></line>
            <line x1="303.81" y1="30" x2="303.81" y2="37.62" id="Path"></line>
            <line x1="307.62" y1="33.81" x2="300" y2="33.81" id="Path"></line>
            <line x1="273.81" y1="30" x2="273.81" y2="37.62" id="Path"></line>
            <line x1="277.62" y1="33.81" x2="270" y2="33.81" id="Path"></line>
            <line x1="243.81" y1="30" x2="243.81" y2="37.62" id="Path"></line>
            <line x1="247.62" y1="33.81" x2="240" y2="33.81" id="Path"></line>
            <line x1="213.81" y1="30" x2="213.81" y2="37.62" id="Path"></line>
            <line x1="217.62" y1="33.81" x2="210" y2="33.81" id="Path"></line>
            <line x1="183.81" y1="30" x2="183.81" y2="37.62" id="Path"></line>
            <line x1="187.62" y1="33.81" x2="180" y2="33.81" id="Path"></line>
            <line x1="153.81" y1="30" x2="153.81" y2="37.62" id="Path"></line>
            <line x1="157.62" y1="33.81" x2="150" y2="33.81" id="Path"></line>
            <line x1="123.81" y1="30" x2="123.81" y2="37.62" id="Path"></line>
            <line x1="127.62" y1="33.81" x2="120" y2="33.81" id="Path"></line>
            <line x1="93.81" y1="30" x2="93.81" y2="37.62" id="Path"></line>
            <line x1="97.62" y1="33.81" x2="90" y2="33.81" id="Path"></line>
            <line x1="63.81" y1="30" x2="63.81" y2="37.62" id="Path"></line>
            <line x1="67.62" y1="33.81" x2="60" y2="33.81" id="Path"></line>
            <line x1="33.81" y1="30" x2="33.81" y2="37.62" id="Path"></line>
            <line x1="37.62" y1="33.81" x2="30" y2="33.81" id="Path"></line>
            <line x1="3.81" y1="30" x2="3.81" y2="37.62" id="Path"></line>
            <line x1="7.62" y1="33.81" x2="0" y2="33.81" id="Path"></line>
            <line x1="303.81" y1="0" x2="303.81" y2="7.62" id="Path"></line>
            <line x1="307.62" y1="3.81" x2="300" y2="3.81" id="Path"></line>
            <line x1="273.81" y1="0" x2="273.81" y2="7.62" id="Path"></line>
            <line x1="277.62" y1="3.81" x2="270" y2="3.81" id="Path"></line>
            <line x1="243.81" y1="0" x2="243.81" y2="7.62" id="Path"></line>
            <line x1="247.62" y1="3.81" x2="240" y2="3.81" id="Path"></line>
            <line x1="213.81" y1="0" x2="213.81" y2="7.62" id="Path"></line>
            <line x1="217.62" y1="3.81" x2="210" y2="3.81" id="Path"></line>
            <line x1="183.81" y1="0" x2="183.81" y2="7.62" id="Path"></line>
            <line x1="187.62" y1="3.81" x2="180" y2="3.81" id="Path"></line>
            <line x1="153.81" y1="0" x2="153.81" y2="7.62" id="Path"></line>
            <line x1="157.62" y1="3.81" x2="150" y2="3.81" id="Path"></line>
            <line x1="123.81" y1="0" x2="123.81" y2="7.62" id="Path"></line>
            <line x1="127.62" y1="3.81" x2="120" y2="3.81" id="Path"></line>
            <line x1="93.81" y1="0" x2="93.81" y2="7.62" id="Path"></line>
            <line x1="97.62" y1="3.81" x2="90" y2="3.81" id="Path"></line>
            <line x1="63.81" y1="0" x2="63.81" y2="7.62" id="Path"></line>
            <line x1="67.62" y1="3.81" x2="60" y2="3.81" id="Path"></line>
            <line x1="33.81" y1="0" x2="33.81" y2="7.62" id="Path"></line>
            <line x1="37.62" y1="3.81" x2="30" y2="3.81" id="Path"></line>
            <line x1="3.81" y1="0" x2="3.81" y2="7.62" id="Path"></line>
            <line x1="7.62" y1="3.81" x2="0" y2="3.81" id="Path"></line>
        </g>
    </g>
</svg>