<?xml version="1.0" encoding="UTF-8"?>
<svg width="38px" height="47px" viewBox="0 0 38 47" version="1.1" xmlns="http://www.w3.org/2000/svg" xmlns:xlink="http://www.w3.org/1999/xlink">
    <!-- Generator: Sketch 60.1 (88133) - https://sketch.com -->
    <title>join-apple</title>
    <desc>Created with Sketch.</desc>
    <g id="Page-1" stroke="none" stroke-width="1" fill="none" fill-rule="evenodd">
        <g id="join-apple" fill="#D3D3D3">
            <path d="M25.39,7.36 C27.1145907,5.31047001 27.9783381,2.67263576 27.8,8.8817842e-16 C25.1634068,0.242139208 22.7245827,1.5010028 21,3.51 C19.2509206,5.45495363 18.3761722,8.0322083 18.58,10.6400854 C21.2335486,10.6517904 23.7449943,9.44216606 25.39,7.36 Z" id="Path"></path>
            <path d="M32.17,28.75 L32.17,28.75 L32.17,28.66 C31.3915706,26.8958976 31.1214185,24.9494171 31.39,23.04 L31.39,23 L31.39,23 C31.6948032,20.746858 32.798414,18.6780314 34.5,17.17 L34.5,17.17 L34.5,17.17 C34.9999585,16.6840154 35.538378,16.2392341 36.11,15.84 C34.1820839,13.0322606 31.0057703,11.3414615 27.6,11.31 C24.29,11 20.83,13.35 19,13.3 C17.17,13.25 14.49,11.2 11.62,11.3 L11.62,11.3 L11.04,11.3 C7.17333065,11.4613807 3.68598609,13.6719379 1.89,17.1 L1.89,17.1 C0.918059667,18.9341246 0.303813014,20.9363651 0.08,23 L0.08,23.1 C-0.0478571871,24.9918591 0.0191619427,26.8918515 0.28,28.77 C0.284080268,28.8032085 0.284080268,28.8367915 0.28,28.87 C0.570371596,30.7964484 1.06309647,32.686903 1.75,34.51 L1.75,34.51 L1.75,34.51 C2.56522217,36.552544 3.56959122,38.5144116 4.75,40.37 L4.75,40.37 C6.75,43.17 8.99,46.31 12.02,46.18 C15.05,46.05 16.02,44.24 19.54,44.26 C23.06,44.28 24,46.1 27.12,46.11 C30.24,46.12 32.21,43.18 34.12,40.38 C35.3306453,38.5383423 36.3366052,36.570014 37.12,34.51 L37.12,34.51 L37.33,33.87 C35.3,33.28 33,30.56 32.17,28.75 Z" id="Path"></path>
        </g>
    </g>
</svg>