<?xml version="1.0" encoding="UTF-8"?>
<svg width="514px" height="264px" viewBox="0 0 514 264" version="1.1" xmlns="http://www.w3.org/2000/svg" xmlns:xlink="http://www.w3.org/1999/xlink">
    <!-- Generator: Sketch 60.1 (88133) - https://sketch.com -->
    <title>Asset 1</title>
    <desc>Created with Sketch.</desc>
    <g id="Page-1" stroke="none" stroke-width="1" fill="none" fill-rule="evenodd" stroke-linecap="round">
        <g id="Asset-1" stroke="#EDEFF5">
            <line x1="506.72" y1="250.5" x2="506.72" y2="262.94" id="Path"></line>
            <line x1="512.94" y1="256.72" x2="500.5" y2="256.72" id="Path"></line>
            <line x1="456.72" y1="250.5" x2="456.72" y2="262.94" id="Path"></line>
            <line x1="462.94" y1="256.72" x2="450.5" y2="256.72" id="Path"></line>
            <line x1="406.72" y1="250.5" x2="406.72" y2="262.94" id="Path"></line>
            <line x1="412.94" y1="256.72" x2="400.5" y2="256.72" id="Path"></line>
            <line x1="356.72" y1="250.5" x2="356.72" y2="262.94" id="Path"></line>
            <line x1="362.94" y1="256.72" x2="350.5" y2="256.72" id="Path"></line>
            <line x1="306.72" y1="250.5" x2="306.72" y2="262.94" id="Path"></line>
            <line x1="312.94" y1="256.72" x2="300.5" y2="256.72" id="Path"></line>
            <line x1="256.72" y1="250.5" x2="256.72" y2="262.94" id="Path"></line>
            <line x1="262.94" y1="256.72" x2="250.5" y2="256.72" id="Path"></line>
            <line x1="206.72" y1="250.5" x2="206.72" y2="262.94" id="Path"></line>
            <line x1="212.94" y1="256.72" x2="200.5" y2="256.72" id="Path"></line>
            <line x1="156.72" y1="250.5" x2="156.72" y2="262.94" id="Path"></line>
            <line x1="162.94" y1="256.72" x2="150.5" y2="256.72" id="Path"></line>
            <line x1="106.72" y1="250.5" x2="106.72" y2="262.94" id="Path"></line>
            <line x1="112.94" y1="256.72" x2="100.5" y2="256.72" id="Path"></line>
            <line x1="56.72" y1="250.5" x2="56.72" y2="262.94" id="Path"></line>
            <line x1="62.94" y1="256.72" x2="50.5" y2="256.72" id="Path"></line>
            <line x1="6.72" y1="250.5" x2="6.72" y2="262.94" id="Path"></line>
            <line x1="12.94" y1="256.72" x2="0.5" y2="256.72" id="Path"></line>
            <line x1="506.72" y1="200.5" x2="506.72" y2="212.94" id="Path"></line>
            <line x1="512.94" y1="206.72" x2="500.5" y2="206.72" id="Path"></line>
            <line x1="456.72" y1="200.5" x2="456.72" y2="212.94" id="Path"></line>
            <line x1="462.94" y1="206.72" x2="450.5" y2="206.72" id="Path"></line>
            <line x1="406.72" y1="200.5" x2="406.72" y2="212.94" id="Path"></line>
            <line x1="412.94" y1="206.72" x2="400.5" y2="206.72" id="Path"></line>
            <line x1="356.72" y1="200.5" x2="356.72" y2="212.94" id="Path"></line>
            <line x1="362.94" y1="206.72" x2="350.5" y2="206.72" id="Path"></line>
            <line x1="306.72" y1="200.5" x2="306.72" y2="212.94" id="Path"></line>
            <line x1="312.94" y1="206.72" x2="300.5" y2="206.72" id="Path"></line>
            <line x1="256.72" y1="200.5" x2="256.72" y2="212.94" id="Path"></line>
            <line x1="262.94" y1="206.72" x2="250.5" y2="206.72" id="Path"></line>
            <line x1="206.72" y1="200.5" x2="206.72" y2="212.94" id="Path"></line>
            <line x1="212.94" y1="206.72" x2="200.5" y2="206.72" id="Path"></line>
            <line x1="156.72" y1="200.5" x2="156.72" y2="212.94" id="Path"></line>
            <line x1="162.94" y1="206.72" x2="150.5" y2="206.72" id="Path"></line>
            <line x1="106.72" y1="200.5" x2="106.72" y2="212.94" id="Path"></line>
            <line x1="112.94" y1="206.72" x2="100.5" y2="206.72" id="Path"></line>
            <line x1="56.72" y1="200.5" x2="56.72" y2="212.94" id="Path"></line>
            <line x1="62.94" y1="206.72" x2="50.5" y2="206.72" id="Path"></line>
            <line x1="6.72" y1="200.5" x2="6.72" y2="212.94" id="Path"></line>
            <line x1="12.94" y1="206.72" x2="0.5" y2="206.72" id="Path"></line>
            <line x1="506.72" y1="150.5" x2="506.72" y2="162.94" id="Path"></line>
            <line x1="512.94" y1="156.72" x2="500.5" y2="156.72" id="Path"></line>
            <line x1="456.72" y1="150.5" x2="456.72" y2="162.94" id="Path"></line>
            <line x1="462.94" y1="156.72" x2="450.5" y2="156.72" id="Path"></line>
            <line x1="406.72" y1="150.5" x2="406.72" y2="162.94" id="Path"></line>
            <line x1="412.94" y1="156.72" x2="400.5" y2="156.72" id="Path"></line>
            <line x1="356.72" y1="150.5" x2="356.72" y2="162.94" id="Path"></line>
            <line x1="362.94" y1="156.72" x2="350.5" y2="156.72" id="Path"></line>
            <line x1="306.72" y1="150.5" x2="306.72" y2="162.94" id="Path"></line>
            <line x1="312.94" y1="156.72" x2="300.5" y2="156.72" id="Path"></line>
            <line x1="256.72" y1="150.5" x2="256.72" y2="162.94" id="Path"></line>
            <line x1="262.94" y1="156.72" x2="250.5" y2="156.72" id="Path"></line>
            <line x1="206.72" y1="150.5" x2="206.72" y2="162.94" id="Path"></line>
            <line x1="212.94" y1="156.72" x2="200.5" y2="156.72" id="Path"></line>
            <line x1="156.72" y1="150.5" x2="156.72" y2="162.94" id="Path"></line>
            <line x1="162.94" y1="156.72" x2="150.5" y2="156.72" id="Path"></line>
            <line x1="106.72" y1="150.5" x2="106.72" y2="162.94" id="Path"></line>
            <line x1="112.94" y1="156.72" x2="100.5" y2="156.72" id="Path"></line>
            <line x1="56.72" y1="150.5" x2="56.72" y2="162.94" id="Path"></line>
            <line x1="62.94" y1="156.72" x2="50.5" y2="156.72" id="Path"></line>
            <line x1="6.72" y1="150.5" x2="6.72" y2="162.94" id="Path"></line>
            <line x1="12.94" y1="156.72" x2="0.5" y2="156.72" id="Path"></line>
            <line x1="506.72" y1="100.5" x2="506.72" y2="112.94" id="Path"></line>
            <line x1="512.94" y1="106.72" x2="500.5" y2="106.72" id="Path"></line>
            <line x1="456.72" y1="100.5" x2="456.72" y2="112.94" id="Path"></line>
            <line x1="462.94" y1="106.72" x2="450.5" y2="106.72" id="Path"></line>
            <line x1="406.72" y1="100.5" x2="406.72" y2="112.94" id="Path"></line>
            <line x1="412.94" y1="106.72" x2="400.5" y2="106.72" id="Path"></line>
            <line x1="356.72" y1="100.5" x2="356.72" y2="112.94" id="Path"></line>
            <line x1="362.94" y1="106.72" x2="350.5" y2="106.72" id="Path"></line>
            <line x1="306.72" y1="100.5" x2="306.72" y2="112.94" id="Path"></line>
            <line x1="312.94" y1="106.72" x2="300.5" y2="106.72" id="Path"></line>
            <line x1="256.72" y1="100.5" x2="256.72" y2="112.94" id="Path"></line>
            <line x1="262.94" y1="106.72" x2="250.5" y2="106.72" id="Path"></line>
            <line x1="206.72" y1="100.5" x2="206.72" y2="112.94" id="Path"></line>
            <line x1="212.94" y1="106.72" x2="200.5" y2="106.72" id="Path"></line>
            <line x1="156.72" y1="100.5" x2="156.72" y2="112.94" id="Path"></line>
            <line x1="162.94" y1="106.72" x2="150.5" y2="106.72" id="Path"></line>
            <line x1="106.72" y1="100.5" x2="106.72" y2="112.94" id="Path"></line>
            <line x1="112.94" y1="106.72" x2="100.5" y2="106.72" id="Path"></line>
            <line x1="56.72" y1="100.5" x2="56.72" y2="112.94" id="Path"></line>
            <line x1="62.94" y1="106.72" x2="50.5" y2="106.72" id="Path"></line>
            <line x1="6.72" y1="100.5" x2="6.72" y2="112.94" id="Path"></line>
            <line x1="12.94" y1="106.72" x2="0.5" y2="106.72" id="Path"></line>
            <line x1="506.72" y1="50.5" x2="506.72" y2="62.94" id="Path"></line>
            <line x1="512.94" y1="56.72" x2="500.5" y2="56.72" id="Path"></line>
            <line x1="456.72" y1="50.5" x2="456.72" y2="62.94" id="Path"></line>
            <line x1="462.94" y1="56.72" x2="450.5" y2="56.72" id="Path"></line>
            <line x1="406.72" y1="50.5" x2="406.72" y2="62.94" id="Path"></line>
            <line x1="412.94" y1="56.72" x2="400.5" y2="56.72" id="Path"></line>
            <line x1="356.72" y1="50.5" x2="356.72" y2="62.94" id="Path"></line>
            <line x1="362.94" y1="56.72" x2="350.5" y2="56.72" id="Path"></line>
            <line x1="306.72" y1="50.5" x2="306.72" y2="62.94" id="Path"></line>
            <line x1="312.94" y1="56.72" x2="300.5" y2="56.72" id="Path"></line>
            <line x1="256.72" y1="50.5" x2="256.72" y2="62.94" id="Path"></line>
            <line x1="262.94" y1="56.72" x2="250.5" y2="56.72" id="Path"></line>
            <line x1="206.72" y1="50.5" x2="206.72" y2="62.94" id="Path"></line>
            <line x1="212.94" y1="56.72" x2="200.5" y2="56.72" id="Path"></line>
            <line x1="156.72" y1="50.5" x2="156.72" y2="62.94" id="Path"></line>
            <line x1="162.94" y1="56.72" x2="150.5" y2="56.72" id="Path"></line>
            <line x1="106.72" y1="50.5" x2="106.72" y2="62.94" id="Path"></line>
            <line x1="112.94" y1="56.72" x2="100.5" y2="56.72" id="Path"></line>
            <line x1="56.72" y1="50.5" x2="56.72" y2="62.94" id="Path"></line>
            <line x1="62.94" y1="56.72" x2="50.5" y2="56.72" id="Path"></line>
            <line x1="6.72" y1="50.5" x2="6.72" y2="62.94" id="Path"></line>
            <line x1="12.94" y1="56.72" x2="0.5" y2="56.72" id="Path"></line>
            <line x1="506.72" y1="0.5" x2="506.72" y2="12.94" id="Path"></line>
            <line x1="512.94" y1="6.72" x2="500.5" y2="6.72" id="Path"></line>
            <line x1="456.72" y1="0.5" x2="456.72" y2="12.94" id="Path"></line>
            <line x1="462.94" y1="6.72" x2="450.5" y2="6.72" id="Path"></line>
            <line x1="406.72" y1="0.5" x2="406.72" y2="12.94" id="Path"></line>
            <line x1="412.94" y1="6.72" x2="400.5" y2="6.72" id="Path"></line>
            <line x1="356.72" y1="0.5" x2="356.72" y2="12.94" id="Path"></line>
            <line x1="362.94" y1="6.72" x2="350.5" y2="6.72" id="Path"></line>
            <line x1="306.72" y1="0.5" x2="306.72" y2="12.94" id="Path"></line>
            <line x1="312.94" y1="6.72" x2="300.5" y2="6.72" id="Path"></line>
            <line x1="256.72" y1="0.5" x2="256.72" y2="12.94" id="Path"></line>
            <line x1="262.94" y1="6.72" x2="250.5" y2="6.72" id="Path"></line>
            <line x1="206.72" y1="0.5" x2="206.72" y2="12.94" id="Path"></line>
            <line x1="212.94" y1="6.72" x2="200.5" y2="6.72" id="Path"></line>
            <line x1="156.72" y1="0.5" x2="156.72" y2="12.94" id="Path"></line>
            <line x1="162.94" y1="6.72" x2="150.5" y2="6.72" id="Path"></line>
            <line x1="106.72" y1="0.5" x2="106.72" y2="12.94" id="Path"></line>
            <line x1="112.94" y1="6.72" x2="100.5" y2="6.72" id="Path"></line>
            <line x1="56.72" y1="0.5" x2="56.72" y2="12.94" id="Path"></line>
            <line x1="62.94" y1="6.72" x2="50.5" y2="6.72" id="Path"></line>
            <line x1="6.72" y1="0.5" x2="6.72" y2="12.94" id="Path"></line>
            <line x1="12.94" y1="6.72" x2="0.5" y2="6.72" id="Path"></line>
        </g>
    </g>
</svg>