<?xml version="1.0" encoding="UTF-8"?>
<svg width="184px" height="36px" viewBox="0 0 184 36" version="1.1" xmlns="http://www.w3.org/2000/svg" xmlns:xlink="http://www.w3.org/1999/xlink">
    <!-- Generator: Sketch 60.1 (88133) - https://sketch.com -->
    <title>business-logo</title>
    <desc>Created with Sketch.</desc>
    <g id="Page-1" stroke="none" stroke-width="1" fill="none" fill-rule="evenodd">
        <g id="business-logo" fill="#061845" fill-rule="nonzero">
            <path d="M16.48,11 C13.5780446,10.7771883 10.6900047,11.5806014 8.32,13.27 L8.32,0 L0,0.27 L0,4.15 L3.05,4.15 L3.05,35.61 L8.3,35.61 L8.3,33.61 C12.5963915,36.6511392 18.339678,36.6669736 22.6527731,33.6495712 C26.9658683,30.6321688 28.9197791,25.2314445 27.5356985,20.1528789 C26.1516178,15.0743134 21.7276614,11.4117734 16.48,11 Z M20.31,28.8 L20.73,32.59 L17.31,30.38 C13.7694102,31.274247 10.1193129,29.3801657 8.81215061,25.9703592 C7.50498828,22.5605527 8.95357553,18.7118712 12.1846296,17.0101827 C15.4156836,15.3084943 19.408806,16.2912087 21.4810812,19.2980557 C23.5533564,22.3049028 23.0503397,26.3862908 20.31,28.8 L20.31,28.8 Z" id="Shape"></path>
            <path d="M45.48,35.55 L50.76,35.55 L50.76,11.16 L42.45,11.43 L42.45,15.31 L45.45,15.31 L45.45,26 C45.4862157,28.3528175 43.7768936,30.3698176 41.45,30.72 C40.2345238,30.878386 39.0061017,30.5451103 38.0373396,29.7941319 C37.0685775,29.0431535 36.4396047,27.9365882 36.29,26.72 C36.2749788,26.520282 36.2749788,26.319718 36.29,26.12 L36.29,11.12 L28,11.43 L28,15.31 L31,15.31 L31,26.15 C31.0052812,28.7729051 32.0543579,31.2858387 33.9155908,33.133938 C35.7768238,34.9820372 38.2971232,36.0132926 40.92,36.0001269 L40.92,36.0001269 C42.5249591,36.003939 44.1057133,35.6087505 45.52,34.85 L45.52,34.85" id="Path"></path>
            <path d="M97.46,11.4299864 L97.46,11.4299864 C95.8551938,11.4273137 94.2747414,11.8224268 92.86,12.58 L92.86,11.45 L84.55,11.72 L84.55,15.6 L87.61,15.6 L87.61,35.77 L92.87,35.77 L92.87,21.42 C92.8388312,19.0709603 94.546924,17.059681 96.87,16.71 C98.0854762,16.551614 99.3138983,16.8848897 100.28266,17.6358681 C101.251422,18.3868465 101.880395,19.4934118 102.03,20.71 C102.03,20.91 102.03,21.11 102.03,21.31 L102.03,35.81 L107.28,35.81 L107.28,21.26 C107.25812,15.8440273 102.875948,11.4573926 97.46,11.4299864 Z" id="Path"></path>
            <polygon id="Path" points="72.9 11.43 72.9 15.31 75.95 15.31 75.95 35.61 81.2 35.61 81.2 11.16"></polygon>
            <circle id="Oval" cx="78.07" cy="4.15" r="3.27"></circle>
            <path d="M63.2,20.84 C58.63,19.91 58.63,19.03 58.63,18.39 L58.63,18.34 C58.63,17.28 59.97,16.14 62.13,16.14 C63.9410278,16.1637487 65.6954906,16.7743018 67.13,17.88 L70.28,13.76 C67.9637367,11.968842 65.118023,10.9979928 62.19,10.9999969 C57.29,10.9999969 53.46,14.22 53.46,18.35 L53.46,18.35 C53.46,23.35 57.81,24.93 62.05,25.79 C66.71,26.73 66.71,27.61 66.71,28.31 L66.71,28.37 C66.71,30.03 64.8,30.77 62.9,30.77 C60.6979299,30.8193148 58.5696608,29.9752216 57,28.43 L53.4,32.16 C55.9211402,34.6287205 59.3114496,36.0078295 62.84,36.0000332 C68.08,36.0000332 71.8401529,32.83 71.8401529,28.46 L71.8401529,28.41 C71.87,23.28 67.48,21.71 63.2,20.84 Z" id="Path"></path>
            <path d="M146.31,20.84 C141.73,19.91 141.73,19.03 141.73,18.39 L141.73,18.34 C141.73,17.28 143.07,16.14 145.23,16.14 C147.040649,16.1658995 148.794452,16.776223 150.23,17.88 L153.38,13.76 C151.062648,11.970867 148.217647,11.000261 145.29,11 C140.39,11 136.56,14.22 136.56,18.35 L136.56,18.35 C136.56,23.35 140.92,24.93 145.15,25.79 C149.81,26.73 149.81,27.61 149.81,28.31 L149.81,28.37 C149.81,30.03 147.91,30.77 146,30.77 C143.796647,30.7900106 141.679079,29.91701 140.13,28.35 L136.53,32.09 C139.049255,34.5307335 142.422336,35.8907311 145.93,35.880063 C151.16,35.880063 154.93,32.71 154.93,28.34 L154.93,28.28 C155,23.28 150.59,21.71 146.31,20.84 Z" id="Path"></path>
            <path d="M166.47,20.84 C161.89,19.9 161.89,19.03 161.89,18.39 L161.89,18.34 C161.89,17.28 163.23,16.14 165.39,16.14 C167.200649,16.1658995 168.954452,16.776223 170.39,17.88 L173.54,13.76 C171.222648,11.970867 168.377647,11.000261 165.45,11 C160.55,11 156.73,14.22 156.73,18.35 L156.73,18.35 C156.73,23.35 161.08,24.93 165.31,25.79 C169.97,26.73 169.97,27.61 169.97,28.31 L169.97,28.37 C169.97,30.03 168.07,30.77 166.16,30.77 C163.962003,30.7876661 161.849607,29.9189164 160.3,28.36 L156.7,32.09 C159.204252,34.5743549 162.582562,35.9780952 166.11,36 C171.34,36 175.110153,32.83 175.110153,28.46 L175.110153,28.41 C175.14,23.28 170.76,21.71 166.47,20.84 Z" id="Path"></path>
            <path d="M178,16.8 C178,15.2756941 179.235694,14.04 180.76,14.04 C182.284306,14.04 183.52,15.2756941 183.52,16.8 L183.52,16.8 C183.557941,17.6117274 183.22276,18.396272 182.61,18.93 L181.79,18.18 C182.207305,17.8380777 182.452475,17.3294422 182.46,16.79 C182.441949,16.359213 182.251863,15.9536668 181.932317,15.6641956 C181.612771,15.3747245 181.190469,15.2255196 180.76,15.25 C180.318219,15.2283048 179.886405,15.3859782 179.562549,15.6872398 C179.238692,15.9885013 179.050256,16.4078053 179.04,16.85 C179.065828,17.3828097 179.303435,17.8832239 179.7,18.24 L178.98,18.97 C178.33481,18.4375386 177.972866,17.6360914 178,16.8 Z" id="Path"></path>
            <path d="M178,22.93 C177.955113,21.409235 179.14936,20.1389495 180.67,20.09 L180.75,20.09 C181.905439,20.0497049 182.97074,20.7114347 183.446661,21.7650768 C183.922582,22.8187189 183.714815,24.0554829 182.920727,24.8957725 C182.126638,25.7360621 180.903587,26.0133651 179.824741,25.5977262 C178.745896,25.1820874 178.025042,24.1558701 178,23 L178,22.93 Z M182.46,22.93 C182.463464,22.4878561 182.283806,22.0639898 181.963669,21.7590063 C181.643531,21.4540228 181.211457,21.2951151 180.77,21.32 C180.329236,21.2814133 179.891723,21.4236623 179.55793,21.7140816 C179.224136,22.0045008 179.022744,22.4181355 179,22.86 L179,23 C178.993746,23.4438722 179.172181,23.8703918 179.492644,24.1775811 C179.813107,24.4847703 180.246789,24.6450144 180.69,24.62 C181.134258,24.6418358 181.568144,24.4811733 181.891044,24.1752682 C182.213943,23.8693632 182.397808,23.4447891 182.4,23 C182.4,23 182.4,22.94 182.4,22.91 L182.46,22.93 Z" id="Shape"></path>
            <path d="M183.47,33.55 C183.497324,34.0772103 183.290529,34.5895963 182.904913,34.9501476 C182.519297,35.3106989 181.994188,35.4826421 181.47,35.42 L178.09,35.42 L178.09,34.19 L181.09,34.19 C181.93,34.19 182.38,33.8 182.38,33.1 C182.38,32.4 181.9,32 181.05,32 L178.05,32 L178.05,30.75 L181.05,30.75 C181.86,30.75 182.33,30.34 182.33,29.66 C182.330735,29.3222356 182.184216,29.0009256 181.928717,28.7800056 C181.673218,28.5590855 181.334118,28.4604991 181,28.51 L178,28.51 L178,27.29 L183.3,27.29 L183.3,28.51 L182.49,28.51 C183.057868,28.8612419 183.402473,29.4822886 183.4,30.15 C183.431456,30.8172152 183.066976,31.4403584 182.47,31.74 C183.087854,32.1355134 183.464046,32.8164203 183.47,33.55 Z" id="Path"></path>
            <ellipse id="Oval" cx="178.72" cy="11.88" rx="1" ry="1"></ellipse>
            <path d="M134.62,25.58 C135.384548,21.1820606 133.744747,16.7103153 130.318294,13.8492273 C126.891841,10.9881393 122.199296,10.1723759 118.008294,11.7092273 C113.817293,13.2460787 110.764548,16.9020606 110,21.3 C109.879681,21.993516 109.819457,22.6961245 109.819996,23.4 L109.819996,23.4 L109.819996,23.4 L109.819996,24 C109.819996,24.13 109.819996,24.28 109.819996,24.42 L109.819996,24.56 C109.826786,24.7043103 109.843492,24.8479828 109.87,24.99 C109.860288,25.0361614 109.860288,25.0838386 109.87,25.13 L109.93,25.51 C109.925147,25.5398037 109.925147,25.5701963 109.93,25.6 L109.93,25.6 C111.135493,31.6517595 116.489999,35.9799498 122.66,35.89 C127.129918,35.9227776 131.303176,33.6567551 133.71,29.89 L129.2,27.21 C127.736201,29.3631418 125.2935,30.6426515 122.69,30.62 C119.421682,30.6734174 116.480513,28.6443322 115.37,25.57 L134.53,25.57 L134.62,25.58 Z M122.33,16.1899987 C125.462112,16.1900979 128.236941,18.2096238 129.2,21.1899987 L115.47,21.1899987 C116.426537,18.2092315 119.199514,16.1881108 122.33,16.1899987 L122.33,16.1899987 Z" id="Shape"></path>
        </g>
    </g>
</svg>