<?xml version="1.0" encoding="UTF-8"?>
<svg width="130px" height="60px" viewBox="0 0 130 60" version="1.1" xmlns="http://www.w3.org/2000/svg" xmlns:xlink="http://www.w3.org/1999/xlink">
    <!-- Generator: Sketch 60.1 (88133) - https://sketch.com -->
    <title>join-disney</title>
    <desc>Created with Sketch.</desc>
    <g id="Page-1" stroke="none" stroke-width="1" fill="none" fill-rule="evenodd">
        <g id="join-disney" transform="translate(0.000000, -1.000000)" fill="#D3D3D3">
            <path d="M20.58,30.83 C15.73,31.19 9.58,32.09 9.58,33.83 C9.58,35.57 14.2,39 20.2,41.2 C20.48,37.56 20.55,33.71 20.58,30.83 Z M2.83,12.52 C1.23,12.57 0,11.87 0,10.9 C0.412877594,9.53976662 1.29528957,8.37030497 2.49,7.6 C5.41231652,6.56077824 8.48846506,6.01991696 11.59,6 C14.2944217,6.00107591 16.9950811,6.20161992 19.67,6.6 C36,9 53.15,21.47 53.48,32.51 C53.7,40 47.21,47.07 34.53,47.45 C31.4056976,47.5448513 28.2839346,47.1912535 25.26,46.4 C25.2,48.24 25.34,49.22 22.72,49.3 C21.12,49.3 20.5,46.75 20.27,44.64 C12.61,41.25 8,35.73 7.94,33.56 C7.84,30.32 13.74,27.56 20.63,26.56 C20.73,23.88 21.18,17.05 22.63,17.01 C23.2,17.01 24.37,18.31 24.82,20.33 C25.1247144,22.2414868 25.2751996,24.1743849 25.27,26.11 L25.79,26.11 C35.46,25.82 41.26,28.85 41.36,32.43 C41.421037,34.5755997 39.8320931,36.4120022 37.7,36.66 C36.41,36.66 34.9,35.97 34.89,35.57 C34.89,34.81 37.64,34.63 37.6,33.39 C37.6,31.53 29.86,30.71 25.12,30.68 C25.12,32.29 25.12,34.22 25.12,35.53 C25.12,36.84 25.24,40.01 25.28,42.71 C27.4243633,43.1766013 29.6158492,43.3913871 31.81,43.35 C36.92,43.19 48.58,41.35 48.32,32.57 C47.94,20.28 23.73,9 10.76,9.42 C5.65,9.57 2.59,10.12 2.6,10.62 C2.6,10.96 5.09,11.08 5.11,11.75 C5.13,12.42 3.7,12.5 2.83,12.52 Z" id="Shape" fill-rule="nonzero"></path>
            <path d="M57.17,25.9 C58.01,25.9 59.17,27.9 59.24,29.13 C59.31,30.36 59.58,36.92 59.67,38.81 C59.7517139,40.3170165 59.7182834,41.8280719 59.57,43.33 C59.45,44.17 59.14,44.58 57.71,44.62 C57.1301974,44.6846682 56.5510606,44.4929504 56.1243729,44.0950929 C55.6976851,43.6972353 55.4659858,43.1329034 55.49,42.55 C55.37,41.29 55.26,37.71 55.32,35.91 C55.38,34.11 55.47,30.68 55.7,28.53 C55.93,26.38 56.51,25.92 57.17,25.9 Z" id="Path"></path>
            <path d="M66.57,2.71 C66.34,2.12 65.57,0.92 62.69,1 C56.48,1.19 51.69,5.79 51.82,9.41 C51.8858665,10.5729448 52.3981454,11.6655677 53.25,12.46 C53.0892834,12.8468969 53.0044112,13.2610733 53,13.68 C53,14.3 54,15.97 54.69,15.94 C55.38,15.91 55.69,15.35 56.32,14.42 C57.2147232,14.7879965 58.1725561,14.9782044 59.14,14.98 C64.98,14.81 70.27,9.34 70.14,5.84 C70.14,4.23 69.1,2.67 66.57,2.71 Z M57.77,11.41 C58.48,10.41 62.21,5.41 66.05,5.29 C67.17,5.29 67.47,5.95 67.49,6.72 C67.49,7.92 65.36,11.43 60.49,11.57 C59.5802941,11.6045998 58.6693755,11.5510164 57.77,11.41 L57.77,11.41 Z M54.77,9.75 C54.6312344,9.52403077 54.555288,9.26512264 54.55,9 C55.0377821,6.68367565 57.0257814,4.98730433 59.39,4.87 C58.4040892,5.55255322 57.5071655,6.35541754 56.72,7.26 C56.0037897,8.04632458 55.3390749,8.87805319 54.73,9.75 L54.77,9.75 Z" id="Shape"></path>
            <path d="M72.31,25.57 C75.73,25.47 80.01,25.91 80.04,27 C80.0536533,27.5734616 79.833239,28.1277659 79.4295164,28.5352616 C79.0257938,28.9427573 78.4735638,29.1683183 77.9,29.16 C75.75,29.38 64.9,29.84 64.9,31.16 C64.9,31.87 68.18,32.02 71.17,32.16 C74.16,32.3 79.17,32.46 79.32,37.44 C79.43,41.36 77.95,42.19 77.32,42.5 C75.4592197,43.338328 73.4722385,43.8621071 71.44,44.05 C64.85,44.24 62.13,40.46 62.08,38.53 C62.03,36.83 63.78,35.31 66.74,35.22 C69.7,35.13 74.27,36.22 74.31,37.42 C74.31,38.42 72.31,38.91 71.42,38.93 C67.42,39.05 67.59,37.42 65.27,37.48 C63.94,37.48 62.08,40.34 68.72,40.14 C74.63,39.96 76.42,38.02 76.39,36.97 C76.39,35.58 72.1,34.91 69.65,34.78 C67.2,34.65 63.52,34.67 62.26,33.88 C61,33.09 61.18,31.29 61.62,29.8 C62.54,26.75 68.9,25.67 72.31,25.57 Z" id="Path"></path>
            <path d="M84,26.85 C86.31,26.79 91.15,37.25 92,37.23 C92.85,37.21 92.2,34.78 91.69,32.11 C90.52,26.06 88.69,22.94 90.41,22.89 C91.68,22.89 95.82,26.89 96.05,34.61 C96.15,38.21 95.65,42.93 92.38,43.02 C89.29,43.12 85.76,33.35 84.96,33.37 C84.53,33.37 84.5,39.42 84.38,41.24 C84.26,43.06 83.63,44.04 82.62,44.07 C81.08,44.07 80.4,42.64 80.32,39.73 C80.24,36.82 81.13,26.94 84,26.85 Z" id="Path"></path>
            <path d="M107.46,32.52 C108.55,32.52 109.51,32.3 109.46,33.72 C109.41,35.14 109.3,35.72 108.16,35.72 L102.32,35.89 C102.13,36.54 101.63,38.22 101.4,38.89 C101.12,39.78 102.01,39.58 103.15,39.26 C104.965035,38.7704683 106.818359,38.4359334 108.69,38.26 C109.96,38.26 110.92,40.26 110.18,40.95 C109.44,41.64 105.5,44.95 101.37,45.11 C99.0834434,45.0770341 97.2108859,43.2830455 97.08,41 C97.1524897,39.2809479 97.5282706,37.5882409 98.19,36 C98.05,35.91 97.95,35.71 97.86,35.27 C97.68,34.27 97.23,33.18 98.86,32.99 L99.35,32.99 L100.72,30.17 C100.237008,30.11379 99.7651285,29.9857086 99.32,29.79 C98.4181849,29.3289714 97.758657,28.5018286 97.51,27.52 C97.51,26.3 106.39,25.58 108.45,25.52 C110.51,25.46 111.29,25.89 112,26.9 C112.480042,27.4826269 112.821924,28.1663904 113,28.9 C113,29.18 112.75,29.9 110.07,29.9 C108.7,29.9 106.48,30.17 104.36,30.25 L103.43,32.72 L107.46,32.52 Z" id="Path" fill-rule="nonzero"></path>
            <path d="M113.5,40.94 C111.1,45.67 109.5,50.67 109.6,54.43 C109.73,58.68 112.33,60.26 113.13,60.2401872 C113.93,60.22 114,59 114.1,58 C114.820294,53.2235496 116.088662,48.5460238 117.88,44.06 C118.474399,44.2128005 119.086312,44.286768 119.7,44.28 C124.56,44.13 130.18,38.33 130,32.16 C129.9,28.9 128.65,26.59 126.56,26.65 C123.56,26.74 119.12,31.36 115.56,37.16 C115.24,34.81 117.1,31.16 118.68,28.65 C119.79,26.87 119.6,24.76 119.14,24.7699646 C118.49,24.7699646 112.23,30.09 112.44,37.36 C112.458139,38.6279914 112.82486,39.8665395 113.5,40.94 L113.5,40.94 Z M120,39.48 C122.92,33.76 125.93,30.48 127,30.48 C128.8,30.42 127.25,38.73 120,39.48 Z" id="Shape"></path>
        </g>
    </g>
</svg>