<?xml version="1.0" encoding="UTF-8"?>
<svg width="134px" height="35px" viewBox="0 0 134 35" version="1.1" xmlns="http://www.w3.org/2000/svg" xmlns:xlink="http://www.w3.org/1999/xlink">
    <!-- Generator: Sketch 60.1 (88133) - https://sketch.com -->
    <title>forbes-logo</title>
    <desc>Created with Sketch.</desc>
    <g id="Page-1" stroke="none" stroke-width="1" fill="none" fill-rule="evenodd">
        <g id="forbes-logo" fill="#061845">
            <path d="M76,-3.55271368e-15 C76,2.69 76,5.39 76,8.08 L76,11.2 L76.92,10.83 C79.4246694,9.66725911 82.3031503,9.61281118 84.85,10.68 C87.2681201,11.7444795 89.0963706,13.8177156 89.85,16.35 C91.36,21.05 91.1,25.66 88.37,29.89 C86.5601535,32.5823529 83.6700807,34.3558066 80.45,34.75 C79.8,34.85 79.13,34.84 78.45,34.89 C78.211046,34.9043532 77.9736225,34.9377931 77.74,34.99 L76.9,34.99 C76.38,34.99 75.9,34.94 75.35,34.86 L69.35,33.94 C69.1479807,33.9293528 68.9897196,33.7622995 68.99,33.56 C68.9843223,33.5336355 68.9843223,33.5063645 68.99,33.48 C68.99,29.48 69.13,25.36 69.13,21.32 C69.13,16.83 69.07,12.32 69.02,7.87 C69.0187158,7.20157352 68.9786485,6.53378462 68.9,5.87 C68.68,4.17 68.14,3.61 66.49,3.19 C66.13,3.1 65.72,3.09 65.76,2.52 C65.7431933,2.38299519 65.7826379,2.24502884 65.8693245,2.13761278 C65.9560112,2.03019673 66.0825358,1.96250552 66.22,1.95 L66.22,1.95 C68.36,1.55 70.5,1.12 72.65,0.72 C73.65,0.52 74.65,0.35 75.72,0.15 C75.7767665,0.107258205 75.8272582,0.0567664759 75.87,-3.55271368e-15 L76,-3.55271368e-15 Z M76,22.86 L76,22.86 L76,28.52 C76,29.77 76.06,31.03 76.1,32.28 C76.0320135,32.6028925 76.2375193,32.9200863 76.56,32.99 L76.56,32.99 C78.2277581,33.3688129 79.9518493,32.645418 80.85,31.19 C81.461041,30.2247549 81.9640653,29.1952319 82.35,28.12 C83.2363821,25.3658121 83.5127773,22.4517194 83.16,19.58 C83.0601371,17.8725224 82.5304049,16.2179693 81.62,14.77 C80.24,12.67 78.62,12.27 76.3,12.92 C76.1818196,12.9395731 76.0763208,13.0054586 76.0068717,13.1030626 C75.9374227,13.2006666 75.9097561,13.3219327 75.93,13.44 L75.93,13.44 C75.9766667,16.6 76,19.74 76,22.86 Z" id="Shape"></path>
            <path d="M0,0.73 C0.24,0.73 0.48,0.66 0.72,0.66 L27.09,0.66 C27.1390454,1.02485891 27.1690859,1.39202126 27.18,1.76 C27.18,4.38 27.24,7.01 27.31,9.63 C27.3489745,9.79314188 27.3212828,9.96509065 27.2330606,10.107748 C27.1448383,10.2504053 27.0033698,10.3519921 26.84,10.39 L26.74,10.39 L26.61,10.39 C25.78,10.63 25.77,10.59 25.41,9.82 C24.8961869,8.588972 24.308449,7.39012014 23.65,6.23 C22.7506741,4.68788099 21.2181014,3.61983508 19.46,3.31 C18.9449638,3.21878251 18.423048,3.17194391 17.9,3.17 L13.15,3.17 C12.9154779,3.1133109 12.6790484,3.25606079 12.62,3.49 C12.6099086,3.55293135 12.6099086,3.61706865 12.62,3.68 C12.5133333,7.79333333 12.4166667,11.9 12.33,16 C12.2739253,16.2564791 12.4343116,16.510424 12.69,16.57 C12.7687631,16.5898947 12.8512369,16.5898947 12.93,16.57 C14.09,16.5 15.26,16.49 16.42,16.37 C17.3778472,16.278726 18.2190248,15.6952064 18.64,14.83 C19.01887,14.0896233 19.3204619,13.3121865 19.54,12.51 C19.5549734,12.3255142 19.6445034,12.1551036 19.7879251,12.0381017 C19.9313468,11.9210998 20.1162658,11.8676178 20.3,11.89 L20.3,11.89 C21.24,11.89 21.13,11.82 21.14,12.73 L21.14,22.64 C21.14,23.16 20.99,23.34 20.49,23.25 C20.4214691,23.2297182 20.3485309,23.2297182 20.28,23.25 C19.77,23.35 19.6,23.07 19.5,22.61 C19.3805212,22.0598008 19.2132189,21.5210874 19,21 C18.5723459,19.5837862 17.2592578,18.6213986 15.78,18.64 C14.78,18.64 13.78,18.56 12.78,18.51 C12.6885001,18.4819785 12.5896086,18.4915403 12.5051723,18.536573 C12.4207359,18.5816058 12.3577036,18.6584033 12.33,18.75 C12.3151228,18.8124597 12.3151228,18.8775403 12.33,18.94 C12.33,21.01 12.39,23.08 12.48,25.17 C12.48,26.52 12.69,27.86 12.81,29.17 C12.8421821,29.4125909 12.8889333,29.6530255 12.95,29.89 C13.1904848,31.4919383 14.580353,32.6679806 16.2,32.64 C16.4921696,32.6720084 16.7825385,32.7187344 17.07,32.78 C17.2001239,32.790186 17.3208064,32.8518664 17.4052842,32.9513625 C17.489762,33.0508586 17.5310529,33.1799469 17.52,33.31 L17.52,33.31 C17.52,34.2 17.52,34.23 16.66,34.23 L0.69,34.23 C0.415624458,34.3029232 0.127693402,34.1735629 0,33.92 L0,33.3 C0.19,32.74 0.69,32.78 1.13,32.74 C3.28,32.37 4.13,31.64 4.42,29.53 C4.64828117,28.1406724 4.78192213,26.7374422 4.82,25.33 C4.9,21.5 4.96,17.68 4.91,13.85 C4.91,11.21 4.74,8.57 4.51,5.92 C4.31,3.79 3.4,2.8 1.66,2.42 C1.44440509,2.36221804 1.22303504,2.32867713 1,2.32 C0.35,2.32 0,2.1 0.09,1.39 C0.080191719,1.29761031 0.0494087792,1.20868182 0,1.13 L0,0.73 Z" id="Path"></path>
            <path d="M35.1,35 C34.38,34.93 33.65,34.9 32.94,34.78 C29.2904935,34.2712059 26.2164937,31.7966361 24.94,28.34 C23.4824853,24.8598117 23.3614083,20.9639795 24.6,17.4 C25.8883597,13.1176608 29.6721229,10.0644457 34.13,9.71 C36.0718346,9.44300352 38.0486411,9.60688384 39.92,10.19 C42.639322,10.9725073 44.8682715,12.9265042 46,15.52 C47.9116714,19.5732077 47.9591491,24.2588885 46.13,28.35 C44.61113,31.8822913 41.3273195,34.3394349 37.51,34.8 C36.94,34.9 36.38,34.9 35.81,34.95 L35.1,34.95 L35.1,35 Z M40,22.65 C40,21.65 40.05,20.73 40,19.78 C39.9315016,18.8104365 39.8079692,17.8455482 39.63,16.89 C39.4081923,15.2109232 38.6949739,13.6348846 37.58,12.36 C36.9970537,11.6433494 36.09619,11.2630911 35.1760492,11.3452823 C34.2559084,11.4274735 33.4367018,11.9613765 32.99,12.77 C32.5521328,13.4939601 32.215662,14.2745721 31.99,15.09 C31.510816,16.8322656 31.2785502,18.6331667 31.3,20.44 C31.130838,23.0600017 31.3192355,25.690837 31.86,28.26 C32.1297994,29.7000397 32.7593057,31.0484903 33.69,32.18 C34.6719257,33.3615858 36.4243311,33.5269914 37.61,32.55 C37.6971167,32.4811223 37.7774792,32.4041083 37.85,32.32 C38.6421382,31.5051874 39.1865913,30.4821703 39.42,29.37 C39.9425189,27.1706739 40.1379532,24.9063311 40,22.65 L40,22.65 Z" id="Shape"></path>
            <path d="M103.65,35 C102.95,34.89 102.24,34.83 101.56,34.67 C96.8960349,33.6954643 93.3651913,29.8673711 92.77,25.14 C92.1860557,22.0987991 92.5707822,18.9510366 93.87,16.14 C96.3838882,10.9961864 102.269874,8.44997759 107.74,10.14 C110.540586,11.1294014 112.643922,13.4777493 113.32,16.37 C113.730822,17.7876928 113.949441,19.2541258 113.97,20.73 C113.97,21.17 113.83,21.3 113.4,21.3 L100.52,21.3 C99.52,21.3 99.74,21.3 99.75,22.07 C99.7203844,23.8688174 100.132421,25.6474438 100.95,27.25 C102.139361,29.7006655 104.625974,31.2547985 107.35,31.25 C109.165823,31.3695711 110.970924,30.8919569 112.49,29.89 C112.75,29.71 113.01,29.52 113.31,29.89 C113.455452,30.0105608 113.545998,30.1847952 113.561063,30.3731149 C113.576129,30.5614346 113.514435,30.7478482 113.39,30.89 L113.39,30.89 C112.171141,32.4056438 110.543609,33.5404045 108.7,34.16 C107.649178,34.4444516 106.584443,34.6747548 105.51,34.85 L104.95,34.96 L103.69,34.96 L103.65,35 Z M106.81,19.15 C106.81,18.46 106.81,17.82 106.7,17.15 C106.627681,16.3047439 106.493995,15.4658653 106.3,14.64 C106.111107,13.8453866 105.811512,13.0812518 105.41,12.37 C104.93443,11.4483997 103.802393,11.0859689 102.88,11.56 C102.710985,11.6421408 102.555792,11.750101 102.42,11.88 C101.967367,12.2566427 101.584823,12.7102787 101.29,13.22 C100.369469,14.9566623 99.8468429,16.8763727 99.76,18.84 C99.76,19.24 99.89,19.34 100.27,19.33 C102.09,19.27 103.91,19.24 105.74,19.19 C106.07,19.19 106.39,19.14 106.81,19.1 L106.81,19.15 Z" id="Shape"></path>
            <path d="M133.61,27.24 C133.55,27.69 133.51,28.14 133.41,28.57 C132.808898,31.3355168 130.726451,33.5411391 128,34.3 C126.930632,34.6501397 125.815034,34.8388813 124.69,34.86 C121.939447,34.9945733 119.186191,34.6563355 116.55,33.86 C115.55,33.55 115.55,33.55 115.47,32.5 C115.41,30.58 115.39,28.67 115.33,26.76 C115.33,26.17 115.76,26.24 116.09,26.12 C116.42,26 116.59,26.22 116.74,26.52 C117.331107,27.7927051 117.999005,29.0283155 118.74,30.22 C119.89801,31.9495166 121.97281,32.8258051 124.02,32.45 C125.603863,32.2021654 126.82509,30.9235657 127,29.33 C127.188256,28.0285676 126.523992,26.7523757 125.35,26.16 C124.14,25.51 122.89,24.96 121.64,24.41 C120.327751,23.941765 119.098882,23.2665623 118,22.41 C116.469652,21.0464373 115.6696,19.0426043 115.84,17 C115.84,13.79 118.41,10.62 122.51,9.85 C125.553778,9.32295994 128.681547,9.57758579 131.6,10.59 C132.015008,10.6709218 132.295383,11.0608193 132.24,11.48 C132.24,13.22 132.24,14.96 132.35,16.7 C132.35,17.29 131.97,17.31 131.62,17.44 C131.27,17.57 131.11,17.26 130.98,16.99 C130.550975,15.9663216 130.070359,14.965038 129.54,13.99 C128.638586,12.31478 126.824637,11.3389461 124.93,11.51 C123.529715,11.694805 122.416205,12.7758041 122.19,14.17 C121.88385,15.5628544 122.536349,16.9901974 123.79,17.67 C125.07,18.43 126.44,19.03 127.79,19.67 C128.89,20.19 129.96,20.75 131,21.37 C132.461263,22.2790427 133.398317,23.8333636 133.52,25.55 C133.547554,25.6660819 133.584337,25.7797769 133.63,25.89 L133.63,27.14 L133.61,27.24 Z" id="Path"></path>
            <path d="M61.75,32.93 L61.75,34.28 L48.21,34.28 C47.7807396,34.3401465 47.3816611,34.0474889 47.31,33.62 C47.277544,33.4248702 47.3204381,33.2246974 47.43,33.06 C47.49825,32.9678518 47.5978336,32.9038338 47.71,32.88 C47.98,32.8 48.28,32.75 48.52,32.7 C49.6137777,32.5665631 50.4556168,31.6700045 50.52,30.57 C50.63,29.66 50.7,28.74 50.72,27.82 C50.72,24.33 50.72,20.82 50.72,17.34 C50.6953563,16.4530629 50.5949914,15.5698521 50.42,14.7 C50.3221434,13.8047731 49.6152269,13.0978479 48.72,13 C48.48,13 48.25,12.88 48.01,12.86 C47.7233605,12.9019593 47.4561386,12.7059966 47.41,12.42 C47.3998012,12.3772668 47.3998012,12.3327332 47.41,12.29 C47.3687467,11.9614366 47.6014769,11.6615727 47.93,11.62 L48,11.62 C51.24,10.93 54.5,10.26 57.73,9.62 L57.73,14.67 L58.12,14.03 C58.9661121,12.333654 60.3472202,10.9630886 62.05,10.13 C63.5137222,9.46869679 65.1814773,9.42186997 66.68,10 C67.29,10.21 67.34,10.34 67.12,10.92 C66.44,12.76 65.74,14.59 65.06,16.43 C65.0387687,16.6747932 64.8251025,16.8572998 64.58,16.84 C64.4876151,16.8288893 64.4006071,16.7906058 64.33,16.73 C63.1810296,16.0587561 61.8579852,15.7454035 60.53,15.83 C59.7692962,15.9635635 59.0250623,16.1781174 58.31,16.47 C57.8773741,16.6498538 57.6162558,17.0945711 57.67,17.56 L57.67,27.74 C57.6902612,28.6265719 57.7603719,29.5113025 57.88,30.39 C58.1,32.08 58.79,32.68 60.56,32.83 C61,32.84 61.33,32.89 61.75,32.93 Z" id="Path"></path>
        </g>
    </g>
</svg>