<?xml version="1.0" encoding="UTF-8"?>
<svg width="130px" height="59px" viewBox="0 0 130 59" version="1.1" xmlns="http://www.w3.org/2000/svg" xmlns:xlink="http://www.w3.org/1999/xlink">
    <!-- Generator: Sketch 60.1 (88133) - https://sketch.com -->
    <title>disney</title>
    <desc>Created with Sketch.</desc>
    <g id="Page-1" stroke="none" stroke-width="1" fill="none" fill-rule="evenodd">
        <g id="disney" transform="translate(0.000000, -1.000000)" fill="#061845">
            <path d="M20.5,30.71 C15.67,31.07 9.5,31.96 9.5,33.66 C9.5,35.36 14.1,38.82 20.08,41.04 C20.4,37.42 20.47,33.58 20.5,30.71 Z M2.82,12.48 C1.23,12.52 0,11.83 0,10.86 C0.405273719,9.50136187 1.28546274,8.33369175 2.48,7.57 C5.39238418,6.54919148 8.4539534,6.01865465 11.54,6 C14.2344718,6.00083939 16.9251758,6.20138875 19.59,6.6 C35.86,9 52.94,21.38 53.26,32.39 C53.49,39.87 47.02,46.89 34.4,47.27 C31.2855568,47.3655741 28.1735891,47.0119414 25.16,46.22 C25.1,48.05 25.24,49.03 22.63,49.11 C21.04,49.11 20.42,46.57 20.18,44.47 C12.56,41.09 8,35.6 7.91,33.43 C7.81,30.2 13.68,27.51 20.55,26.43 C20.64,23.76 21.1,16.96 22.55,16.91 C23.11,16.91 24.29,18.21 24.73,20.22 C25.0225781,22.132428 25.1596935,24.0654212 25.14,26 L25.66,26 C35.29,25.71 41.06,28.73 41.17,32.29 C41.2215451,34.4266998 39.6418275,36.253113 37.52,36.51 C36.24,36.51 34.73,35.82 34.72,35.42 C34.72,34.66 37.46,34.48 37.42,33.25 C37.37,31.4 29.71,30.58 24.99,30.55 C24.99,32.15 24.99,34.08 24.99,35.38 C24.99,36.68 25.11,39.85 25.14,42.53 C27.2769724,43.0005469 29.4623059,43.2153877 31.65,43.17 C36.74,43.02 48.36,41.17 48.1,32.43 C47.75,20.21 23.63,9 10.72,9.39 C5.63,9.54 2.58,10.08 2.59,10.58 C2.59,10.92 5.07,11.04 5.09,11.7 C5.11,12.36 3.69,12.45 2.82,12.48 Z" id="Shape" fill-rule="nonzero"></path>
            <path d="M57,25.8 C57.83,25.8 59,27.8 59.06,29.02 C59.12,30.24 59.39,36.78 59.48,38.66 C59.5718801,40.1635035 59.5384313,41.6720466 59.38,43.17 C59.26,44 58.96,44.41 57.53,44.45 C56.9518228,44.5115312 56.37549,44.3184032 55.9511267,43.9209227 C55.5267634,43.5234421 55.2963846,42.9609624 55.32,42.38 C55.2,41.13 55.09,37.56 55.15,35.77 C55.21,33.98 55.3,30.56 55.53,28.42 C55.76,26.28 56.29,25.82 57,25.8 Z" id="Path"></path>
            <path d="M66.31,2.71 C66.07,2.12 65.31,0.92 62.44,1 C56.26,1.19 51.5,5.77 51.61,9.38 C51.6893864,10.5250524 52.2004805,11.5972777 53.04,12.38 C52.8874496,12.761655 52.8093776,13.1689869 52.81,13.58 C52.81,14.21 53.81,15.87 54.5,15.84 C55.19,15.81 55.5,15.25 56.12,14.32 C57.0120178,14.6865661 57.9656522,14.8800079 58.93,14.89 C64.74,14.71 70.01,9.27 69.93,5.78 C69.86,4.22 68.82,2.67 66.31,2.71 Z M57.54,11.36 C58.25,10.36 61.96,5.36 65.79,5.27 C66.91,5.27 67.2,5.93 67.23,6.7 C67.23,7.9 65.1,11.39 60.23,11.53 C59.3299527,11.559982 58.4291121,11.5030516 57.54,11.36 L57.54,11.36 Z M54.54,9.72 C54.4097543,9.50183149 54.3374642,9.25397977 54.33,9 C54.8174144,6.69469522 56.7966386,5.00701655 59.15,4.89 C58.1695351,5.56797508 57.2761639,6.36394864 56.49,7.26 C55.7807668,8.0391252 55.1195476,8.86064002 54.51,9.72 L54.54,9.72 Z" id="Shape"></path>
            <path d="M72,25.47 C75.4,25.37 79.66,25.81 79.69,26.9 C79.7008341,27.4699906 79.4805608,28.0201093 79.0793319,28.4251056 C78.678103,28.8301019 78.1300669,29.0555067 77.56,29.05 C75.42,29.27 64.62,29.72 64.66,31.05 C64.66,31.75 67.93,31.91 70.9,32.05 C73.87,32.19 78.9,32.35 79.02,37.3 C79.14,41.21 77.66,42.04 77.02,42.3 C75.1643907,43.1313719 73.1845969,43.651659 71.16,43.84 C64.6,44.03 61.9,40.26 61.84,38.34 C61.79,36.64 63.54,35.13 66.48,35.05 C69.42,34.97 73.98,36.05 74.02,37.23 C74.02,38.23 72.02,38.72 71.15,38.74 C67.15,38.86 67.33,37.23 65.02,37.3 C63.7,37.3 61.85,40.14 68.45,39.94 C74.34,39.77 76.12,37.83 76.09,36.79 C76.09,35.41 71.83,34.73 69.39,34.61 C66.95,34.49 63.28,34.5 62.02,33.71 C60.76,32.92 60.95,31.12 61.38,29.64 C62.29,26.65 68.62,25.57 72,25.47 Z" id="Path"></path>
            <path d="M83.65,26.75 C85.95,26.68 90.77,37.11 91.58,37.09 C92.39,37.07 91.79,34.65 91.28,31.99 C90.11,25.99 88.28,22.85 90.01,22.8 C91.26,22.8 95.39,26.8 95.61,34.48 C95.72,38.07 95.22,42.76 91.97,42.86 C88.89,42.95 85.37,33.22 84.58,33.24 C84.15,33.24 84.11,39.24 84,41.08 C83.89,42.92 83.25,43.87 82.24,43.9 C80.71,43.9 80.03,42.48 79.95,39.58 C79.87,36.68 80.81,26.84 83.65,26.75 Z" id="Path"></path>
            <path d="M107,32.39 C108.09,32.39 109,32.18 109,33.59 C109,35 108.85,35.59 107.71,35.59 L101.89,35.76 C101.7,36.41 101.2,38.08 100.98,38.76 C100.7,39.64 101.58,39.45 102.72,39.12 C104.528854,38.6611455 106.371325,38.346822 108.23,38.18 C109.51,38.18 110.46,40.18 109.73,40.86 C109,41.54 105.06,44.86 100.95,45.01 C98.6289429,44.9518852 96.7626469,43.0811875 96.71,40.76 C96.7974075,39.0623324 97.1727534,37.3918738 97.82,35.82 C97.68,35.73 97.58,35.53 97.5,35.09 C97.31,34.09 96.87,33.01 98.5,32.82 L98.99,32.77 L100.35,30 C99.8684829,29.9419263 99.3973357,29.8174088 98.95,29.63 C98.0536745,29.1647247 97.3987398,28.3387793 97.15,27.36 C97.15,26.15 105.99,25.43 108.05,25.36 C110.26,25.29 110.88,25.72 111.59,26.72 C112.070042,27.3026269 112.411924,27.9863904 112.59,28.72 C112.59,29 112.34,29.72 109.67,29.72 C108.31,29.72 106.1,29.99 103.98,30.07 L103,32.57 L107,32.39 Z" id="Path" fill-rule="nonzero"></path>
            <path d="M113,40.79 C110.62,45.49 109,50.47 109.13,54.22 C109.25,58.45 111.85,60.02 112.64,60.0001884 C113.43,59.98 113.47,58.73 113.64,57.79 C114.355037,53.0340589 115.616722,48.3765618 117.4,43.91 C117.993685,44.0657072 118.606455,44.1364115 119.22,44.12 C124.05,43.98 129.65,38.21 129.47,32.06 C129.37,28.81 128.13,26.51 126.05,26.57 C123.05,26.66 118.63,31.26 115.12,37.03 C114.81,34.69 116.65,31.03 118.23,28.56 C119.34,26.79 119.14,24.68 118.68,24.6998589 C118.04,24.6998589 111.8,30 112.02,37.24 C112.023948,38.4895936 112.362326,39.7153504 113,40.79 Z M119.45,39.32 C122.36,33.63 125.36,30.39 126.45,30.3199638 C128.29,30.3 126.74,38.58 119.49,39.32 L119.45,39.32 Z" id="Shape"></path>
        </g>
    </g>
</svg>